<svg id="圖層_1" data-name="圖層 1" xmlns="http://www.w3.org/2000/svg" viewBox="0 0 153.2 153.2"><defs><style>.cls-1{fill:#205784;}.cls-2{fill:#f8ece7;}.cls-3,.cls-4,.cls-5{fill:none;stroke:#f8ece7;}.cls-3{stroke-linecap:round;stroke-linejoin:round;}.cls-3,.cls-4{stroke-width:2px;}.cls-4,.cls-5{stroke-miterlimit:10;}</style></defs><circle class="cls-1" cx="76.6" cy="76.6" r="76.6"/><path class="cls-2" d="M86.44,172.09a.65.65,0,0,1-.92-.49l-.73-2.44a.64.64,0,0,1,.49-.91l7-2.1.34,1.15-6.7,2,.47,1.55,6.7-2,.34,1.15Z" transform="translate(-73.12 -76.07)"/><path class="cls-2" d="M89.24,178.36a.92.92,0,0,1-1-.07,2.11,2.11,0,0,1-.55-.85c0-.09-.1-.23-.16-.4l-.15-.37-1.74.73-.46-1.08,6.51-2.75.46,1.08-.17.07c.14.24.29.47.44.71a7.13,7.13,0,0,1,.39.72.56.56,0,0,1-.33.84Zm-.16-1.21,2.61-1.1-.45-1-2.95,1.25.28.67A.34.34,0,0,0,89.08,177.15Z" transform="translate(-73.12 -76.07)"/><path class="cls-2" d="M93.17,187.67l-.69-1.1a.57.57,0,0,1,.2-.89l3-1.88-.29-.47.84-.53.3.47,1.19-.75.62,1-1.19.74.4.64-.85.53-.4-.64-2.7,1.69.42.66Z" transform="translate(-73.12 -76.07)"/><path class="cls-2" d="M97.52,192.62a.56.56,0,0,1-.9-.13l-1.27-1.67a.58.58,0,0,1,.11-.92l3.11-2.36a.58.58,0,0,1,.91.14l1.27,1.68a.58.58,0,0,1-.12.91Zm-.42-1.11,2.57-1.95-.68-.89-2.57,2Z" transform="translate(-73.12 -76.07)"/><path class="cls-2" d="M110.8,195.91l-3.07,1.73c-.32.16-.83.44-1.53.87l-2,2.16-.88-.83,2-2.15c.14-.24.28-.5.41-.78.21-.5.33-.77.35-.81l1.52-3.18,0,0,.9.84-1.68,3.21,3.08-1.9.9.84Z" transform="translate(-73.12 -76.07)"/><path class="cls-2" d="M110.88,205.29a.58.58,0,0,1-.91.12l-1.68-1.27a.57.57,0,0,1-.14-.91l2.35-3.11a.58.58,0,0,1,.92-.11l1.67,1.27a.56.56,0,0,1,.14.9Zm-.72-1,2-2.57-.89-.67-2,2.57Z" transform="translate(-73.12 -76.07)"/><path class="cls-2" d="M116.26,209.51l-1-.61.09-.15-.76-.31a5.74,5.74,0,0,1-.74-.36.57.57,0,0,1-.22-.88l2.37-3.91,1,.61-2.18,3.59,1,.56,2.17-3.58,1,.61Z" transform="translate(-73.12 -76.07)"/><path class="cls-2" d="M126.63,214.33l-1.09-.43.06-.17c-.79-.16-1.23-.26-1.31-.29a.89.89,0,0,1-.55-.5.94.94,0,0,1,0-.75l1.18-3a.9.9,0,0,1,.74-.65,2.15,2.15,0,0,1,1,.19l.4.17.37.16,1-2.65,1.09.43Zm-.72-1.37,1.17-3-.68-.27a.34.34,0,0,0-.5.22l-.91,2.31a.34.34,0,0,0,.21.49Z" transform="translate(-73.12 -76.07)"/><path class="cls-2" d="M133.25,215.7a.57.57,0,0,1-.81.44l-1.95-.55a.58.58,0,0,1-.46-.8l1.05-3.75a.58.58,0,0,1,.81-.44l2,.55a.58.58,0,0,1,.47.8l-.52,1.83-.4.22-1.83-.51-.39,1.4,1.06.29.23-.83,1.09.31Zm-.42-2.65.33-1.2-1.06-.29-.33,1.19Z" transform="translate(-73.12 -76.07)"/><path class="cls-2" d="M139.84,217a.57.57,0,0,1-.75.52l-2-.35a.58.58,0,0,1-.54-.75l.67-3.84a.58.58,0,0,1,.76-.52l2,.35a.58.58,0,0,1,.53.75l-.21,1.21-1.13-.2.15-.88-1-.18-.56,3.18,1,.18.17-1,1.12.19Z" transform="translate(-73.12 -76.07)"/><path class="cls-2" d="M144.21,218.15l-1.15-.11.46-5.16,1.15.1Zm.53-5.91-1.17-.1.11-1.21,1.17.11Z" transform="translate(-73.12 -76.07)"/><path class="cls-2" d="M151,218.39l-1.17,0v-.18c-.8.13-1.25.19-1.34.19a.89.89,0,0,1-.69-.27,1,1,0,0,1-.24-.71l.05-3.2a.91.91,0,0,1,.47-.87,2,2,0,0,1,1-.17h.43l.4,0,0-2.85,1.17,0Zm-1.15-1,.05-3.19h-.72a.35.35,0,0,0-.4.38l0,2.48a.34.34,0,0,0,.36.39Z" transform="translate(-73.12 -76.07)"/><path class="cls-2" d="M157.66,217.28a.58.58,0,0,1-.6.7l-2,.19a.58.58,0,0,1-.71-.58l-.37-3.88a.57.57,0,0,1,.6-.7l2-.19a.58.58,0,0,1,.72.58l.18,1.89-.3.35-1.89.18.13,1.44,1.1-.1-.08-.86,1.12-.1ZM156.32,215l-.12-1.24-1.1.1.12,1.24Z" transform="translate(-73.12 -76.07)"/><path class="cls-2" d="M167.64,210.6l.06,5.28,0,2-1.16.31,0-2-2.6-4.63,1.17-.31,1.54,3.12-.22-3.47Z" transform="translate(-73.12 -76.07)"/><path class="cls-2" d="M174.92,212.83a.57.57,0,0,1-.38.83l-2,.74a.57.57,0,0,1-.84-.36l-1.38-3.65a.57.57,0,0,1,.39-.83l2-.75a.57.57,0,0,1,.83.37Zm-1.19.09-1.14-3-1,.39,1.14,3Z" transform="translate(-73.12 -76.07)"/><path class="cls-2" d="M181.38,210.51l-1,.52-.08-.16-.67.49a4.59,4.59,0,0,1-.7.43.57.57,0,0,1-.86-.28l-2-4.09,1-.52,1.88,3.76,1-.52L178,206.4l1-.52Z" transform="translate(-73.12 -76.07)"/><path class="cls-2" d="M185.48,204.55l-1,.62-.63-1-.77.51,2.23,3.53-1,.63-2.76-4.38,1-.63.11.16.54-.5a3.67,3.67,0,0,1,.57-.45.56.56,0,0,1,.88.19Z" transform="translate(-73.12 -76.07)"/><path class="cls-2" d="M197.59,198.5l-.85.79-2.85-3.08-.8.76,2.84,3.07-.86.8-2.85-3.09-.8.77,2.84,3.07-.86.79-3.52-3.8.86-.8.13.14.51-.65a6.37,6.37,0,0,1,.55-.62.53.53,0,0,1,.54-.18c.19-.23.36-.46.54-.69a6.62,6.62,0,0,1,.58-.66.56.56,0,0,1,.9,0Z" transform="translate(-73.12 -76.07)"/><path class="cls-2" d="M201.69,192.91a.58.58,0,0,1,.07.92l-1.36,1.6a.59.59,0,0,1-.92.09l-3-2.53a.57.57,0,0,1-.06-.92l1.36-1.6a.57.57,0,0,1,.91-.08Zm-1,.66-2.45-2.09-.73.85,2.46,2.09Z" transform="translate(-73.12 -76.07)"/><path class="cls-2" d="M207.5,185.82l-.64,1-3.5-2.32-.6.93,3.49,2.31-.65,1-3.5-2.32-.6.93L205,189.6l-.65,1L200,187.72l.65-1,.16.1.34-.75a5.18,5.18,0,0,1,.39-.73c.15-.23.31-.33.48-.31.13-.26.25-.53.37-.8a7.22,7.22,0,0,1,.4-.77.56.56,0,0,1,.88-.19Z" transform="translate(-73.12 -76.07)"/><path class="cls-2" d="M210.12,179.5a.57.57,0,0,1,.28.88l-.91,1.81a.58.58,0,0,1-.87.3l-3.49-1.75a.58.58,0,0,1-.27-.88l.91-1.81a.58.58,0,0,1,.87-.31l1.7.86.15.44-.86,1.7,1.29.65.5-1-.77-.38.51-1Zm-2.68-.09-1.11-.56-.49,1,1.11.56Z" transform="translate(-73.12 -76.07)"/><path class="cls-2" d="M213.32,173.44l-.42,1.1L209,173l-.37,1,3.9,1.5-.42,1.1-4.84-1.86.42-1.1.18.07c.06-.27.12-.54.17-.8a6.81,6.81,0,0,1,.22-.81.57.57,0,0,1,.82-.37Z" transform="translate(-73.12 -76.07)"/><path class="cls-2" d="M215,168.07l-.36,1.25a.56.56,0,0,1-.79.45l-3.41-1-.15.53-1-.27.15-.53-1.36-.38.32-1.13,1.35.38.21-.73,1,.27-.2.73,3.06.86.21-.75Z" transform="translate(-73.12 -76.07)"/><path class="cls-2" d="M115,103.41l-1.08.87-3-3.69a8.69,8.69,0,0,1-.6-.87l2.15,4.61-.57.46-4.09-3a7.69,7.69,0,0,1,.73.76l3,3.69-1.08.88-6.09-7.49,1.06-.86,4.54,3.18a3.28,3.28,0,0,1,.31.32,3,3,0,0,1-.25-.36l-2.19-5.1,1.05-.86Z" transform="translate(-73.12 -76.07)"/><path class="cls-2" d="M120.8,98.78a.69.69,0,0,1-.27,1.07l-2.16,1.31a.69.69,0,0,1-1.08-.25l-2.42-4a.69.69,0,0,1,.28-1.07l2.16-1.3a.69.69,0,0,1,1.07.25Zm-1.39.37-2-3.32-1.15.69,2,3.33Z" transform="translate(-73.12 -76.07)"/><path class="cls-2" d="M130.38,95.25l-1.29.54-1.94-4.66-1.21.53,1.93,4.64-1.3.54-1.94-4.66-1.22.53,1.93,4.64-1.3.54-2.39-5.75,1.3-.54.09.21.84-.53a6.4,6.4,0,0,1,.89-.46.63.63,0,0,1,.68,0l.9-.55a7,7,0,0,1,.92-.5.67.67,0,0,1,1,.4Z" transform="translate(-73.12 -76.07)"/><path class="cls-2" d="M137.19,92.61a.7.7,0,0,1-.58,1l-2.36.59a.69.69,0,0,1-1-.56l-1.14-4.54a.7.7,0,0,1,.58-1l2.37-.59a.7.7,0,0,1,1,.56l.55,2.22-.28.47-2.22.55.42,1.7,1.29-.32-.25-1,1.31-.33Zm-2-2.51-.36-1.45-1.29.33.37,1.44Z" transform="translate(-73.12 -76.07)"/><path class="cls-2" d="M144.73,92.27l-1.41.17-.6-5-1.32.19.6,5-1.4.17-.74-6.19,1.4-.17,0,.23,1-.27a7,7,0,0,1,1-.22.67.67,0,0,1,.85.67Z" transform="translate(-73.12 -76.07)"/><path class="cls-2" d="M150.71,92.08l-1.57,0a.68.68,0,0,1-.79-.76l-.07-4.25h-.67l0-1.2h.67l0-1.69,1.41,0,0,1.69h.91l0,1.2-.91,0,.07,3.82.94,0Z" transform="translate(-73.12 -76.07)"/><path class="cls-2" d="M158.8,90.91a1.77,1.77,0,0,1-.65,1.27,1.92,1.92,0,0,1-1.41.33l-2.92-.32,1.05-9.59,2.92.32a1.86,1.86,0,0,1,1.3.63,1.81,1.81,0,0,1,.36,1.39Zm-1.42-.4L158,85c.06-.54-.2-.83-.75-.9L156.17,84l-.78,7.13,1,.11Q157.29,91.32,157.38,90.51Z" transform="translate(-73.12 -76.07)"/><path class="cls-2" d="M165.93,93.53a.7.7,0,0,1-1,.56l-2.36-.59a.69.69,0,0,1-.59-.93L163.14,88a.69.69,0,0,1,1-.55l2.36.58a.69.69,0,0,1,.59.94l-.55,2.22-.47.28-2.22-.54-.42,1.69,1.29.32.25-1,1.31.32Zm-.61-3.17.36-1.45-1.29-.32L164,90Z" transform="translate(-73.12 -76.07)"/><path class="cls-2" d="M172.82,95.94a.69.69,0,0,1-1,.44l-2.22-.85a.68.68,0,0,1-.45-1l.48-1.25,1.26.49-.38,1,1.16.44.35-.92-1.56-2a.75.75,0,0,1-.16-.78l.52-1.36a.7.7,0,0,1,1-.44l2.2.84a.69.69,0,0,1,.45,1L174,92.73l-1.25-.48.35-.9L172,90.91l-.32.84,1.56,2a.78.78,0,0,1,.16.8Z" transform="translate(-73.12 -76.07)"/><path class="cls-2" d="M176.78,98.69l-1.24-.62,2.81-5.56,1.24.62ZM180,92.34l-1.26-.64.65-1.3,1.26.64Z" transform="translate(-73.12 -76.07)"/><path class="cls-2" d="M182.38,103.8a.68.68,0,0,1-1.08.21l-2.07-1.33a.69.69,0,0,1-.25-1.07l.54-.84,1.15.73-.4.63,1.07.69.7-1.08-1.22-.79a1.26,1.26,0,0,1-.61-.79,1.19,1.19,0,0,1,.2-1l2.07-3.2a1.18,1.18,0,0,1,.71-.55,1.14,1.14,0,0,1,.87.19,15,15,0,0,1,1.21,1.09l.12-.2,1.18.77Zm.27-3,2.08-3.22A8.74,8.74,0,0,0,184,97a.39.39,0,0,0-.62.13l-1.62,2.51a.41.41,0,0,0,.14.64Z" transform="translate(-73.12 -76.07)"/><path class="cls-2" d="M189,107.15l-1.09-.92,3.25-3.87-1-.83-3.23,3.85-1.09-.91,4-4.77,1.08.91-.15.18.85.51a6.52,6.52,0,0,1,.83.56.68.68,0,0,1,.1,1.08Z" transform="translate(-73.12 -76.07)"/><polygon class="cls-3" points="69.45 103.41 83.76 103.41 92.02 87.43 76.61 53.97 61.2 87.43 69.45 103.41"/><line class="cls-3" x1="76.61" y1="54.35" x2="76.61" y2="84.48"/><path class="cls-3" d="M152.68,163.5a2.95,2.95,0,1,0-3,2.95A2.95,2.95,0,0,0,152.68,163.5Z" transform="translate(-73.12 -76.07)"/><rect class="cls-3" x="66.14" y="103.41" width="20.93" height="6.25"/><path class="cls-4" d="M190,155.78a40.25,40.25,0,0,0-80.5,0" transform="translate(-73.12 -76.07)"/><rect class="cls-2" x="112.6" y="77.2" width="8.51" height="8.51"/><rect class="cls-2" x="72.35" y="35.21" width="8.51" height="8.51"/><rect class="cls-2" x="32.11" y="77.2" width="8.51" height="8.51"/><line class="cls-5" x1="34.99" y1="38.63" x2="116.86" y2="38.63"/><path class="cls-2" d="M191.66,114.72a1.67,1.67,0,1,0-1.67,1.67A1.66,1.66,0,0,0,191.66,114.72Z" transform="translate(-73.12 -76.07)"/><path class="cls-2" d="M111.14,114.72a1.67,1.67,0,1,0-1.67,1.67A1.66,1.66,0,0,0,111.14,114.72Z" transform="translate(-73.12 -76.07)"/></svg>