<?xml version="1.0" encoding="utf-8"?>
<!-- Generator: Adobe Illustrator 25.2.1, SVG Export Plug-In . SVG Version: 6.00 Build 0)  -->
<svg version="1.1" xmlns="http://www.w3.org/2000/svg" xmlns:xlink="http://www.w3.org/1999/xlink" x="0px" y="0px"
	 viewBox="0 0 500 500" style="enable-background:new 0 0 500 500;" xml:space="preserve">
<style type="text/css">
	.st0{fill:#E0E0E0;}
	.st1{fill:#F5F5F5;}
	.st2{fill:#EBEBEB;}
	.st3{fill:#FAFAFA;}
	.st4{opacity:0.3;}
	.st5{fill:#FFFFFF;}
	.st6{display:none;}
	.st7{display:inline;fill:#F5F5F5;}
	.st8{fill:#263238;}
	.st9{fill:#FF725E;}
	.st10{fill:#455A64;}
	.st11{fill:#FFBE9D;}
	.st12{fill:#EB996E;}
	.st13{opacity:0.6;}
</style>
<g id="Background_Complete">
	<path class="st0" d="M298.7,471.2c0,2.7-17.4,5-39,5c-21.5,0-39-2.2-39-5c0-2.7,17.4-5,39-5C281.2,466.3,298.7,468.5,298.7,471.2z"
		/>
	<g>
		<g>
			<path class="st1" d="M183,150.2c3.3-2,6.7-3.5,10.3-4.5l2.1-10.2l17.2-0.3l2.5,10.1c3.6,0.9,7.1,2.3,10.5,4.1l8.7-5.7l12.4,12
				l-5.4,8.9c2,3.3,3.5,6.7,4.5,10.3L256,177l0.3,17.2l-10.1,2.5c-0.9,3.6-2.3,7.1-4.1,10.5l5.7,8.7l-12,12.4l-8.9-5.4
				c-3.3,2-6.7,3.5-10.3,4.5l-2.1,10.2l-17.2,0.3l-2.5-10.1c-3.6-0.9-7.1-2.3-10.5-4.1l-8.7,5.7l-12.4-12l5.4-8.9
				c-2-3.3-3.5-6.7-4.5-10.3l-10.2-2.1l-0.3-17.2l10.1-2.5c0.9-3.6,2.3-7.1,4.1-10.5l-5.7-8.7l12-12.4L183,150.2L183,150.2z
				 M192.2,173.2c-7.1,7.4-6.9,19.1,0.5,26.2c7.4,7.1,19.1,6.9,26.2-0.5c7.1-7.4,6.9-19.1-0.5-26.2
				C211,165.6,199.3,165.8,192.2,173.2z"/>
		</g>
	</g>
	<g>
		<g>
			<path class="st2" d="M284.4,180.3c2.7-1,5.6-1.5,8.4-1.7l3.2-7.3l12.9,2.5l0.2,7.9c2.6,1.2,5,2.8,7.1,4.7l7.4-2.9l7.3,10.9
				l-5.4,5.8c1,2.7,1.5,5.6,1.7,8.4l7.3,3.2l-2.5,12.9l-7.9,0.2c-1.2,2.6-2.8,5-4.7,7.1l2.9,7.4l-10.9,7.3l-5.8-5.4
				c-2.7,1-5.6,1.5-8.4,1.7l-3.2,7.3l-12.9-2.5l-0.2-7.9c-2.6-1.2-5-2.8-7.1-4.7l-7.4,2.9l-7.3-10.9l5.4-5.8c-1-2.7-1.5-5.6-1.7-8.4
				l-7.3-3.2l2.5-12.9l7.9-0.2c1.2-2.6,2.8-5,4.7-7.1l-2.9-7.4l10.9-7.3L284.4,180.3L284.4,180.3z M287.6,198.9
				c-6.5,4.4-8.2,13.1-3.8,19.6c4.4,6.5,13.1,8.2,19.6,3.8c6.5-4.4,8.2-13.1,3.8-19.6C302.9,196.2,294.1,194.5,287.6,198.9z"/>
		</g>
	</g>
	<g>
		<g>
			<g>
				<path class="st0" d="M329.6,41.1c0,0,0.1,0.1,0.2,0.2c0.2,0.1,0.4,0.3,0.7,0.5c0.6,0.5,1.5,1.1,2.7,1.8c1.2,0.7,2.8,1.5,4.8,2.1
					c1.9,0.6,4.2,1,6.8,0.9c2.6-0.1,5.3-0.6,8.3-1c3-0.5,6.2-0.7,9.6-0.3c3.4,0.4,6.9,1.4,10.2,3c3.3,1.6,6.5,3.9,9.1,6.9
					c2.6,2.9,4.6,6.3,5.8,9.9c1.2,3.5,1.7,7.1,1.6,10.5c-0.1,3.4-0.6,6.6-0.7,9.6c-0.1,3,0.2,5.8,1.1,8.2c0.8,2.4,1.9,4.5,3.1,6.1
					c1.2,1.6,2.4,2.9,3.5,3.8c0.5,0.5,1.1,0.8,1.5,1.2c0.5,0.3,0.8,0.6,1.2,0.8c0.3,0.2,0.6,0.3,0.7,0.4c0.2,0.1,0.2,0.2,0.2,0.2
					c0,0-0.1,0-0.3-0.1c-0.2-0.1-0.4-0.2-0.8-0.4c-0.3-0.2-0.7-0.5-1.2-0.8c-0.4-0.3-1-0.7-1.5-1.2c-1.1-0.9-2.4-2.2-3.6-3.8
					c-1.2-1.6-2.4-3.7-3.2-6.1c-0.8-2.4-1.2-5.3-1.1-8.3c0.1-3,0.5-6.2,0.7-9.6c0.1-3.4-0.3-6.9-1.6-10.4c-1.2-3.5-3.1-6.8-5.7-9.7
					c-2.6-2.9-5.7-5.2-9-6.8c-3.3-1.6-6.8-2.6-10.1-3c-3.4-0.4-6.6-0.2-9.6,0.3c-3,0.4-5.8,0.9-8.4,1c-2.6,0.1-4.9-0.3-6.9-1
					c-2-0.6-3.5-1.4-4.8-2.1c-1.2-0.7-2.1-1.4-2.7-1.9c-0.3-0.2-0.5-0.4-0.7-0.6C329.7,41.1,329.6,41.1,329.6,41.1z"/>
			</g>
		</g>
		<g>
			<g>
				<path class="st0" d="M346.8,19c0,0,1.2,1.1,3.2,3.2c1,1.1,2.1,2.5,3.3,4.2c1.1,1.7,2.3,3.9,2.9,6.4c0.2,0.6,0.2,1.3,0.3,2
					c0,0.7,0,1.4,0,2.1c0,1.4-0.1,2.9-0.1,4.4c-0.1,3.1-0.2,6.4-0.1,9.8c0.1,3.4,0.7,7,2,10.5c1.3,3.5,3.4,6.9,6.2,9.7
					c2.8,2.8,6.2,4.9,9.7,6.1c3.5,1.2,7.2,1.6,10.6,1.1c3.4-0.5,6.6-1.5,9.6-2c1.5-0.3,3-0.4,4.4-0.4c1.4,0,2.8,0.2,4.1,0.5
					c2.6,0.6,4.8,1.5,6.6,2.6c1.8,1.1,3.2,2.2,4.2,3.3c1,1,1.7,2,2.2,2.6c0.2,0.3,0.4,0.6,0.5,0.7c0.1,0.2,0.2,0.3,0.2,0.3
					s-0.1-0.1-0.2-0.2c-0.1-0.2-0.3-0.4-0.5-0.7c-0.5-0.6-1.2-1.5-2.2-2.5c-1-1-2.4-2.2-4.2-3.2c-1.8-1-4-2-6.5-2.5
					c-1.3-0.3-2.6-0.4-4-0.4c-1.4,0-2.9,0.2-4.4,0.4c-3,0.5-6.2,1.6-9.6,2c-3.4,0.5-7.2,0.1-10.8-1.1c-3.6-1.2-7-3.4-9.8-6.2
					c-2.8-2.9-4.9-6.3-6.2-9.8c-1.3-3.5-2-7.2-2-10.7c0-3.5,0.1-6.7,0.1-9.8c0-1.5,0.1-3,0.1-4.4c0-0.7,0-1.4,0-2.1
					c-0.1-0.7-0.1-1.3-0.3-2c-0.6-2.5-1.7-4.7-2.8-6.4c-1.1-1.7-2.2-3.1-3.2-4.2c-1-1.1-1.7-1.9-2.3-2.5c-0.3-0.3-0.5-0.5-0.6-0.6
					C346.8,19.1,346.8,19,346.8,19z"/>
			</g>
		</g>
		<g>
			<g>
				<path class="st0" d="M356.3,35.9c0.1,0.1-1.9,2.6-4.5,5.6c-2.5,3-4.7,5.5-4.7,5.4c-0.1-0.1,1.9-2.6,4.5-5.6
					C354.1,38.2,356.2,35.8,356.3,35.9z"/>
			</g>
		</g>
		<g>
			<g>
				<path class="st0" d="M354.6,29.5c0.1,0.1-3.4,3.7-7.8,8.1c-4.4,4.4-8,8-8,7.9c-0.1-0.1,3.4-3.7,7.8-8.1
					C350.9,33,354.5,29.4,354.6,29.5z"/>
			</g>
		</g>
		<g>
			<g>
				<path class="st0" d="M351,23.6c0.1,0.1-4.2,4.4-9.5,9.7c-5.3,5.3-9.6,9.5-9.7,9.5c-0.1-0.1,4.2-4.4,9.5-9.7
					C346.6,27.8,350.9,23.5,351,23.6z"/>
			</g>
		</g>
		<g>
			<g>
				<path class="st0" d="M389,69.4c0.1,0.1-2.4,2.3-5.5,5c-3.1,2.7-5.7,4.8-5.7,4.7c-0.1-0.1,2.4-2.3,5.5-5
					C386.3,71.4,388.9,69.3,389,69.4z"/>
			</g>
		</g>
		<g>
			<g>
				<path class="st0" d="M385.7,60.6c0,0-0.2,0.2-0.6,0.6c-0.4,0.4-1,1-1.7,1.7c-1.4,1.4-3.4,3.3-5.7,5.2c-2.3,2-4.4,3.7-5.9,5
					c-0.8,0.6-1.4,1.1-1.9,1.4c-0.4,0.3-0.7,0.5-0.7,0.5s0.2-0.2,0.6-0.6c0.5-0.4,1.1-0.9,1.8-1.5c1.5-1.3,3.6-3.1,5.9-5
					c2.3-2,4.3-3.8,5.8-5.2c0.7-0.6,1.3-1.2,1.7-1.6C385.4,60.8,385.6,60.6,385.7,60.6z"/>
			</g>
		</g>
		<g>
			<g>
				<path class="st0" d="M380.6,53.9c0,0-0.2,0.2-0.7,0.6c-0.5,0.4-1.2,1-2,1.7c-1.7,1.4-4.1,3.4-6.6,5.6c-2.5,2.2-4.8,4.3-6.4,5.8
					c-0.8,0.7-1.4,1.3-1.9,1.8c-0.5,0.4-0.7,0.7-0.7,0.6c0,0,0.2-0.3,0.6-0.7c0.4-0.5,1-1.1,1.8-1.9c1.6-1.6,3.8-3.7,6.3-5.9
					c2.5-2.2,4.9-4.2,6.7-5.5c0.9-0.7,1.6-1.2,2.1-1.6C380.3,54,380.6,53.9,380.6,53.9z"/>
			</g>
		</g>
		<g>
			<g>
				<path class="st0" d="M372.2,49.3c0,0-0.2,0.2-0.5,0.5c-0.4,0.4-0.9,0.8-1.5,1.4c-1.3,1.2-3,2.8-4.9,4.6
					c-1.9,1.8-3.6,3.5-4.8,4.7c-0.6,0.6-1,1-1.4,1.4c-0.3,0.3-0.5,0.5-0.6,0.5c0,0,0.1-0.2,0.5-0.6c0.3-0.4,0.8-0.9,1.4-1.5
					c1.2-1.3,2.8-2.9,4.7-4.8c1.9-1.8,3.7-3.4,5-4.5c0.7-0.6,1.2-1,1.6-1.3C372,49.5,372.2,49.3,372.2,49.3z"/>
			</g>
		</g>
		<g>
			<g>
				<path class="st0" d="M365.8,45.7c0.1,0.1-2,2.1-4.6,4.5c-2.6,2.4-4.7,4.3-4.8,4.2c-0.1-0.1,2-2.1,4.6-4.5
					C363.5,47.6,365.7,45.7,365.8,45.7z"/>
			</g>
		</g>
		<g>
			<g>
				<path class="st0" d="M401.4,76.5c0,0-0.1,0.2-0.5,0.5c-0.4,0.3-0.8,0.8-1.3,1.2c-1.2,1.1-2.7,2.5-4.4,4.1
					c-1.7,1.6-3.2,3-4.4,4.1c-0.5,0.5-1,0.9-1.3,1.2c-0.3,0.3-0.5,0.4-0.5,0.4c0,0,0.1-0.2,0.4-0.5c0.3-0.3,0.7-0.8,1.3-1.3
					c1.1-1.1,2.6-2.6,4.3-4.2c1.7-1.6,3.3-3,4.5-4c0.6-0.5,1.1-0.9,1.4-1.2C401.2,76.6,401.4,76.5,401.4,76.5z"/>
			</g>
		</g>
		<g>
			<g>
				<path class="st0" d="M409.6,79.6c0.1,0.1-4,4-9.1,8.7c-5.1,4.8-9.3,8.6-9.4,8.5c-0.1-0.1,4-4,9.1-8.7
					C405.4,83.3,409.5,79.5,409.6,79.6z"/>
			</g>
		</g>
		<g>
			<g>
				<path class="st0" d="M415.2,82.7c0.1,0.1-4.3,4.5-9.8,10c-5.5,5.4-10,9.8-10.1,9.7c-0.1-0.1,4.3-4.5,9.8-10
					C410.6,87,415.2,82.6,415.2,82.7z"/>
			</g>
		</g>
	</g>
	<g>
		<g>
			<g>
				<g>
					<g>
						<g>
							<path class="st0" d="M423,377.1c0,0,0.1-0.1,0.2-0.4c0-0.1,0.1-0.1,0.1-0.2c0-0.1,0.1-0.2,0.1-0.3c0.1-0.2,0.2-0.4,0.2-0.7
								c0-0.1,0.1-0.3,0.1-0.5c0-0.2,0-0.3,0-0.5c0-0.2,0-0.4,0-0.6c0-0.2,0-0.4,0-0.6c-0.1-0.8-0.3-1.8-0.7-2.8
								c-0.8-2.1-2.2-4.4-4.1-6.9c-1.9-2.5-4.4-5-7.4-7.6c-2.9-2.6-6.4-5.2-10.2-7.8c-3.9-2.5-8.2-5-12.9-7.2
								c-2.4-1.1-4.8-2.1-7.4-3.1c-2.6-0.9-5.2-1.7-8-2.4c-2.8-0.6-5.6-1-8.5-0.9c-1.5,0.1-2.9,0.2-4.3,0.7c-0.7,0.3-1.4,0.6-2,1
								c-0.6,0.4-1.1,1-1.5,1.6c-0.4,0.6-0.6,1.4-0.7,2.1c-0.1,0.7-0.1,1.5,0.1,2.2c0.2,1.5,0.8,2.8,1.4,4.1c1.3,2.6,3.1,4.9,4.9,7
								c1.9,2.1,3.9,4.1,5.9,5.8c2,1.8,4.1,3.4,6.2,5c4.2,3,8.5,5.6,12.5,7.8c4.1,2.1,8,3.9,11.7,5.2c3.7,1.3,7.2,2.2,10.2,2.7
								c3.1,0.5,5.8,0.6,8,0.2c1.1-0.2,2-0.4,2.8-0.8c0.2-0.1,0.4-0.2,0.5-0.3c0.2-0.1,0.3-0.2,0.5-0.3c0.1-0.1,0.3-0.2,0.4-0.3
								c0.1-0.1,0.2-0.2,0.4-0.3c0.2-0.2,0.4-0.4,0.5-0.5c0.1-0.1,0.1-0.2,0.2-0.2c0.1-0.1,0.1-0.1,0.1-0.2
								C422.9,377.2,423,377.1,423,377.1s-0.1,0.1-0.2,0.4c0,0.1-0.1,0.1-0.1,0.2c-0.1,0.1-0.1,0.1-0.2,0.2
								c-0.1,0.2-0.3,0.4-0.5,0.5c-0.1,0.1-0.2,0.2-0.4,0.3c-0.1,0.1-0.3,0.2-0.4,0.3c-0.1,0.1-0.3,0.2-0.5,0.3
								c-0.2,0.1-0.3,0.2-0.5,0.3c-0.8,0.3-1.7,0.6-2.8,0.8c-2.2,0.4-4.9,0.3-8-0.2c-3.1-0.5-6.5-1.4-10.3-2.7
								c-3.7-1.3-7.7-3.1-11.8-5.2c-4.1-2.2-8.3-4.7-12.6-7.8c-2.1-1.5-4.2-3.2-6.3-5c-2.1-1.8-4.1-3.7-5.9-5.9
								c-1.9-2.1-3.6-4.4-5-7.1c-0.7-1.3-1.2-2.7-1.5-4.2c-0.1-0.7-0.1-1.5-0.1-2.2c0.1-0.7,0.3-1.5,0.7-2.1
								c0.4-0.7,0.9-1.2,1.5-1.7c0.6-0.4,1.3-0.8,2-1c1.4-0.5,2.9-0.7,4.4-0.8c2.9-0.1,5.8,0.3,8.6,0.9c2.8,0.6,5.4,1.4,8,2.4
								c2.6,0.9,5,2,7.4,3.1c4.7,2.2,9,4.7,12.9,7.2c3.9,2.5,7.3,5.2,10.3,7.8c2.9,2.6,5.4,5.2,7.4,7.7c1.9,2.5,3.3,4.8,4.1,6.9
								c0.4,1,0.6,2,0.7,2.8c0,0.2,0,0.4,0,0.6c0,0.2,0,0.4,0,0.6c0,0.2,0,0.3,0,0.5c0,0.2-0.1,0.3-0.1,0.5c0,0.3-0.1,0.5-0.2,0.7
								c0,0.1-0.1,0.2-0.1,0.3c0,0.1-0.1,0.2-0.1,0.2C423.1,377,423,377.1,423,377.1z"/>
						</g>
					</g>
				</g>
				<g>
					<g>
						<g>
							<path class="st0" d="M428.4,349.9c0,0,0-0.1-0.1-0.4c0-0.1,0-0.2-0.1-0.2c0-0.1-0.1-0.2-0.1-0.3c-0.1-0.2-0.2-0.4-0.3-0.7
								c-0.1-0.1-0.1-0.3-0.2-0.4c-0.1-0.1-0.2-0.3-0.3-0.4c-0.1-0.1-0.2-0.3-0.4-0.4c-0.1-0.1-0.3-0.3-0.4-0.4
								c-0.6-0.6-1.4-1.1-2.4-1.6c-1.9-1-4.5-1.8-7.6-2.4c-3.1-0.6-6.6-0.8-10.6-0.8c-3.9,0-8.2,0.4-12.8,1
								c-4.6,0.7-9.4,1.7-14.4,3.2c-2.5,0.7-5,1.6-7.5,2.6c-2.5,1-5.1,2.2-7.5,3.6c-2.5,1.4-4.9,3-7,5c-1,1-2,2.1-2.7,3.4
								c-0.3,0.6-0.6,1.3-0.8,2.1c-0.1,0.7-0.2,1.5,0,2.2c0.2,0.7,0.5,1.4,0.9,2c0.4,0.6,0.9,1.1,1.5,1.6c1.1,0.9,2.5,1.6,3.8,2.1
								c2.7,1.1,5.6,1.6,8.4,1.9c2.8,0.3,5.6,0.4,8.3,0.4c2.7,0,5.4-0.2,8-0.5c5.2-0.5,10-1.4,14.5-2.6c4.5-1.1,8.6-2.4,12.2-3.9
								c3.6-1.5,6.8-3.1,9.5-4.8c2.6-1.7,4.7-3.4,6.1-5.1c0.7-0.8,1.2-1.7,1.6-2.4c0.1-0.2,0.2-0.4,0.2-0.6c0.1-0.2,0.1-0.4,0.2-0.5
								c0-0.2,0.1-0.3,0.1-0.5c0-0.2,0-0.3,0.1-0.5c0.1-0.3,0-0.5,0.1-0.8c0-0.1,0-0.2,0-0.3c0-0.1,0-0.2,0-0.2
								C428.4,350.1,428.4,349.9,428.4,349.9s0,0.1,0.1,0.4c0,0.1,0,0.2,0,0.2c0,0.1,0,0.2,0,0.3c0,0.2,0,0.5,0,0.8
								c0,0.1,0,0.3-0.1,0.5c0,0.2-0.1,0.3-0.1,0.5c0,0.2-0.1,0.4-0.2,0.5c-0.1,0.2-0.1,0.4-0.2,0.6c-0.3,0.8-0.9,1.6-1.6,2.5
								c-1.4,1.7-3.5,3.5-6.1,5.2c-2.6,1.7-5.8,3.3-9.5,4.8c-3.6,1.5-7.8,2.8-12.2,4c-4.5,1.1-9.4,2-14.5,2.6
								c-2.6,0.3-5.3,0.4-8,0.5c-2.7,0-5.5-0.1-8.3-0.4c-2.8-0.3-5.7-0.9-8.4-2c-1.4-0.5-2.7-1.2-3.9-2.2c-0.6-0.5-1.1-1-1.5-1.6
								c-0.4-0.6-0.7-1.3-0.9-2.1c-0.1-0.8-0.1-1.5,0-2.3c0.2-0.7,0.4-1.4,0.8-2.1c0.7-1.3,1.7-2.4,2.8-3.5c2.1-2,4.6-3.6,7-5
								c2.5-1.4,5-2.5,7.5-3.6c2.5-1,5.1-1.9,7.6-2.6c5-1.5,9.8-2.5,14.4-3.2c4.6-0.7,8.9-1,12.8-1c3.9,0,7.5,0.3,10.6,0.8
								c3.1,0.6,5.7,1.4,7.6,2.4c1,0.5,1.8,1.1,2.4,1.7c0.2,0.1,0.3,0.3,0.4,0.4c0.1,0.1,0.3,0.3,0.4,0.4c0.1,0.1,0.2,0.3,0.3,0.4
								c0.1,0.1,0.2,0.3,0.2,0.4c0.2,0.2,0.2,0.5,0.3,0.7c0,0.1,0.1,0.2,0.1,0.3c0,0.1,0,0.2,0.1,0.2
								C428.4,349.8,428.4,349.9,428.4,349.9z"/>
						</g>
					</g>
				</g>
				<g>
					<g>
						<g>
							<path class="st0" d="M408.4,321.4c0,0-0.1-0.1-0.4-0.2c-0.1,0-0.1-0.1-0.2-0.1c-0.1,0-0.2,0-0.3-0.1
								c-0.2-0.1-0.5-0.1-0.7-0.2c-0.1,0-0.3,0-0.5-0.1c-0.2,0-0.3,0-0.5,0c-0.2,0-0.4,0-0.6,0c-0.2,0-0.4,0-0.6,0.1
								c-0.8,0.1-1.8,0.4-2.8,0.9c-2,0.9-4.2,2.5-6.6,4.5c-2.3,2.1-4.7,4.7-7.1,7.9c-2.4,3.1-4.8,6.7-7,10.8
								c-2.3,4-4.4,8.5-6.3,13.3c-0.9,2.4-1.8,4.9-2.5,7.6c-0.8,2.6-1.4,5.3-1.8,8.1c-0.4,2.8-0.6,5.7-0.3,8.6
								c0.2,1.4,0.4,2.9,1,4.2c0.3,0.7,0.7,1.3,1.1,1.9c0.5,0.6,1.1,1,1.7,1.4c0.7,0.3,1.4,0.5,2.1,0.6c0.7,0,1.5,0,2.2-0.2
								c1.4-0.3,2.8-1,4-1.7c2.5-1.5,4.7-3.4,6.7-5.4c2-2,3.8-4.1,5.4-6.3c1.6-2.2,3.1-4.4,4.5-6.6c2.7-4.4,5-8.8,6.9-13
								c1.9-4.2,3.3-8.3,4.4-12.1c1.1-3.8,1.8-7.3,2-10.4c0.3-3.1,0.2-5.8-0.3-8c-0.2-1.1-0.6-2-1-2.7c-0.1-0.2-0.2-0.4-0.3-0.5
								c-0.1-0.2-0.2-0.3-0.3-0.5c-0.1-0.1-0.2-0.3-0.3-0.4c-0.1-0.1-0.2-0.2-0.3-0.3c-0.2-0.2-0.4-0.4-0.6-0.5
								c-0.1-0.1-0.2-0.1-0.2-0.2c-0.1,0-0.1-0.1-0.2-0.1C408.6,321.5,408.4,321.4,408.4,321.4s0.1,0.1,0.4,0.2
								c0.1,0,0.1,0.1,0.2,0.1c0.1,0.1,0.2,0.1,0.2,0.2c0.2,0.1,0.4,0.3,0.6,0.5c0.1,0.1,0.2,0.2,0.3,0.3c0.1,0.1,0.2,0.3,0.3,0.4
								c0.1,0.1,0.2,0.3,0.3,0.5c0.1,0.2,0.2,0.3,0.3,0.5c0.4,0.7,0.7,1.7,1,2.8c0.5,2.2,0.6,4.9,0.3,8c-0.3,3.1-1,6.6-2,10.4
								c-1.1,3.8-2.5,7.9-4.4,12.1c-1.9,4.2-4.1,8.7-6.9,13.1c-1.4,2.2-2.9,4.4-4.5,6.6c-1.6,2.2-3.4,4.3-5.4,6.3
								c-2,2-4.2,3.9-6.7,5.4c-1.3,0.7-2.6,1.4-4.1,1.7c-0.7,0.2-1.5,0.2-2.2,0.2c-0.8-0.1-1.5-0.2-2.2-0.6
								c-0.7-0.4-1.3-0.8-1.8-1.4c-0.5-0.6-0.9-1.2-1.2-1.9c-0.6-1.4-0.9-2.8-1.1-4.3c-0.3-2.9-0.1-5.8,0.3-8.6
								c0.4-2.8,1.1-5.5,1.8-8.1c0.8-2.6,1.6-5.1,2.6-7.6c1.9-4.9,4.1-9.3,6.3-13.3c2.3-4,4.7-7.6,7.1-10.8c2.4-3.1,4.8-5.8,7.1-7.9
								c2.3-2.1,4.6-3.6,6.6-4.5c1-0.4,1.9-0.8,2.8-0.9c0.2,0,0.4,0,0.6-0.1c0.2,0,0.4,0,0.6,0c0.2,0,0.4,0,0.5,0
								c0.2,0,0.3,0,0.5,0.1c0.3,0,0.5,0.1,0.7,0.2c0.1,0,0.2,0.1,0.3,0.1c0.1,0,0.2,0.1,0.2,0.1
								C408.3,321.3,408.4,321.4,408.4,321.4z"/>
						</g>
					</g>
				</g>
				<g>
					<g>
						<path class="st0" d="M355.7,380.5c0.7,0.4,0.8,1.3,0.4,2c-0.4,0.7-1.3,0.8-2,0.4c-0.7-0.4-0.8-1.3-0.4-2
							C354.1,380.3,355,380.1,355.7,380.5z"/>
					</g>
				</g>
				<g>
					<g>
						<path class="st0" d="M426.1,321.4c0.2,0.8-0.3,1.5-1.1,1.7c-0.8,0.2-1.5-0.3-1.7-1.1c-0.2-0.8,0.3-1.5,1.1-1.7
							C425.2,320.2,425.9,320.7,426.1,321.4z"/>
					</g>
				</g>
				<g>
					<g>
						<path class="st0" d="M365.4,383.4c0,0.2-0.1,0.4-0.3,0.4c-0.2,0-0.4-0.1-0.4-0.3c0-0.2,0.1-0.4,0.3-0.4
							C365.2,383.1,365.4,383.2,365.4,383.4z"/>
					</g>
				</g>
				<g>
					<g>
						<path class="st0" d="M365.2,342.6c0,0.2-0.1,0.4-0.3,0.4c-0.2,0-0.4-0.1-0.4-0.3c0-0.2,0.1-0.4,0.3-0.4
							C365,342.3,365.2,342.4,365.2,342.6z"/>
					</g>
				</g>
				<g>
					<g>
						<path class="st0" d="M424.6,350.7c0,0.2-0.1,0.4-0.3,0.4c-0.2,0-0.4-0.1-0.4-0.3c0-0.2,0.1-0.4,0.3-0.4
							C424.3,350.4,424.5,350.5,424.6,350.7z"/>
					</g>
				</g>
				<g>
					<g>
						<path class="st0" d="M426.2,333.1c0,0.2-0.1,0.4-0.3,0.4c-0.2,0-0.4-0.1-0.4-0.3s0.1-0.4,0.3-0.4
							C426,332.8,426.2,332.9,426.2,333.1z"/>
					</g>
				</g>
			</g>
		</g>
		<ellipse transform="matrix(0.4584 -0.8888 0.8888 0.4584 -106.0461 540.7519)" class="st0" cx="390.6" cy="357.4" rx="7" ry="7"/>
	</g>
	<path class="st1" d="M345.6,134.8c-3-8-7.6-15.2-13.6-21.3c-10.3-10.5-22.1-19.9-35.4-26.4c-13.3-6.5-35-12.3-50.8-12.3
		c-8.2-0.3-12.3,0.2-19.7,3.1c-4.6,1.8-8.5,5.9-8.8,10.8c-0.3,4.5,2.5,10.1,6.2,12.7c16.1,11.3,28.3,11.9,43.9,16.9
		c15.6,5,31.6,12.4,40.1,26.3c4.6,7.5,7.2,17.2,15.1,21.2c7.7,3.9,17.8,0.1,22.5-7C349.8,151.7,348.7,142.8,345.6,134.8z"/>
	<g>
		<path class="st0" d="M131.8,277.1c0,0-0.4,0.2-1.2,0.6c-0.8,0.4-1.9,1-3.4,1.9c-3,1.7-7.3,4.3-12.6,8.2c-5.2,3.9-11.4,9-17.7,15.7
			c-3.2,3.4-6.4,7.2-9.5,11.4c-3.2,4.2-6.1,8.9-8.6,14.2c-1.2,2.6-2.3,5.4-3.2,8.3c-0.8,2.9-1.5,6-1.8,9.1c-0.3,3.2-0.1,6.4,0.5,9.6
			c0.3,1.6,0.8,3.2,1.3,4.8c0.6,1.6,1.3,3.1,2.1,4.6c3.4,5.9,8.7,10.9,15,14.5c6.3,3.6,13.6,5.8,21.2,7.1c3.8,0.6,7.7,1.1,11.6,1.4
			c2,0.2,3.9,0.2,5.9,0.3c2,0.1,4,0.2,6,0.3c2,0.1,4,0.1,6.1,0.1c2,0,4.1,0,6.1,0c2.1,0,4.1-0.1,6.2-0.2c2.1-0.1,4.2-0.2,6.3-0.3
			c16.7-1,34-3.7,51.3-7.7c34.7-8.1,66.4-20.6,94.3-33.7c14-6.5,27.1-13.2,38.1-21.4c5.5-4.1,10.4-8.5,14.7-13.3
			c0.5-0.6,1-1.2,1.6-1.8c0.5-0.6,1-1.2,1.5-1.8c0.5-0.6,1-1.2,1.4-1.8c0.4-0.6,0.9-1.3,1.3-1.9c1.8-2.5,3.3-5.1,4.5-7.7
			c2.4-5.3,3.7-10.8,3.5-16c-0.2-5.2-2.2-10.1-5.5-13.3c-3.3-3.2-7.5-4.9-11.3-5.6c-3.9-0.7-7.6-0.5-10.8,0c-3.2,0.5-6,1.4-8.4,2.2
			c-2.4,0.8-4.3,1.6-5.9,2.3c-1.6,0.7-2.8,1.2-3.6,1.5c-0.8,0.4-1.2,0.5-1.2,0.5s0.4-0.2,1.2-0.6c0.8-0.4,2-0.9,3.6-1.6
			c1.6-0.7,3.5-1.5,5.9-2.4c2.4-0.8,5.2-1.7,8.4-2.3c3.2-0.6,6.9-0.8,10.8-0.1c3.9,0.7,8.1,2.4,11.5,5.6c3.4,3.2,5.4,8.2,5.7,13.5
			c0.2,5.3-1.1,10.9-3.5,16.2c-1.2,2.7-2.7,5.3-4.5,7.8c-0.4,0.6-0.9,1.3-1.3,1.9c-0.5,0.6-1,1.2-1.4,1.8c-0.5,0.6-0.9,1.2-1.5,1.8
			c-0.5,0.6-1,1.2-1.6,1.8c-4.2,4.8-9.2,9.3-14.7,13.3c-11.1,8.2-24.2,15-38.1,21.5c-27.9,13.1-59.7,25.6-94.4,33.7
			c-34.7,8.1-69.1,10.4-99.7,6.2c-7.6-1.3-15-3.5-21.3-7.1c-6.4-3.6-11.8-8.7-15.2-14.7c-0.9-1.5-1.6-3.1-2.2-4.6
			c-0.5-1.6-1.1-3.2-1.3-4.9c-0.6-3.3-0.8-6.6-0.5-9.8c0.3-3.2,0.9-6.3,1.8-9.2c0.9-2.9,2-5.7,3.2-8.4c2.5-5.3,5.5-10,8.7-14.2
			c3.1-4.2,6.4-8,9.6-11.4c6.4-6.8,12.6-11.9,17.8-15.7c5.3-3.9,9.6-6.4,12.6-8.1C130.2,277.9,131.8,277.1,131.8,277.1z"/>
	</g>
	<g>
		<g>
			<path class="st2" d="M422.2,188.6l-12.5,46l-38,10.5c-1.2,0.3-2,1.7-1.7,3.1l0,0l41.6-10.7l1.5-0.5l49.3-13.2l5.5-21.8l7.1-25.6
				c0.5-1.6-0.8-3.2-2.2-2.8l-49.1,13.5C422.9,187.3,422.4,187.9,422.2,188.6z"/>
		</g>
		<polygon class="st3" points="424.8,190.1 413.4,232 458.1,219.7 468.1,178.4 		"/>
		<g>
			<path class="st0" d="M472.7,173.6c0,0,0,0.1,0,0.2c0,0.2-0.1,0.4-0.2,0.7c-0.2,0.7-0.4,1.6-0.7,2.7c-0.6,2.4-1.4,5.8-2.5,10
				c-2.2,8.5-5.2,20.4-8.6,33.8l0,0.1l-0.1,0c-2.3,0.6-4.7,1.3-7.2,1.9c-15,4-28.6,7.6-38.5,10.3c-4.9,1.3-8.9,2.3-11.7,3.1
				c-1.4,0.3-2.4,0.6-3.2,0.8c-0.3,0.1-0.6,0.1-0.8,0.2c-0.2,0-0.3,0.1-0.3,0c0,0,0.1,0,0.3-0.1c0.2-0.1,0.5-0.1,0.8-0.2
				c0.8-0.2,1.8-0.5,3.2-0.9c2.8-0.8,6.8-1.9,11.6-3.2c9.9-2.7,23.4-6.4,38.4-10.4c2.4-0.7,4.9-1.3,7.2-1.9l-0.2,0.2
				c3.5-13.4,6.5-25.2,8.8-33.7c1.1-4.2,2-7.6,2.6-10c0.3-1.1,0.6-2,0.7-2.7c0.1-0.3,0.1-0.5,0.2-0.7
				C472.7,173.7,472.7,173.6,472.7,173.6z"/>
		</g>
	</g>
	<g>
		<g>
			<g>
				<g>
					<g>
						<g>
							
								<ellipse transform="matrix(0.8626 -0.5058 0.5058 0.8626 -160.1787 111.0724)" class="st2" cx="124.4" cy="350.5" rx="18.9" ry="18.9"/>
						</g>
					</g>
				</g>
			</g>
			<g class="st4">
				<g>
					<g>
						<g>
							<path class="st5" d="M118.1,351.1c-1.5,0.8-3.4,0.2-4.2-1.3c-0.8-1.5-0.2-3.4,1.3-4.2c1.5-0.8,3.4-0.2,4.2,1.3
								C120.1,348.4,119.6,350.3,118.1,351.1z"/>
						</g>
					</g>
				</g>
			</g>
			<g class="st4">
				<g>
					<g>
						<g>
							<path class="st5" d="M123.8,343c-0.9,0.5-2,0.1-2.4-0.7c-0.5-0.9-0.1-2,0.7-2.4c0.9-0.5,2-0.1,2.4,0.7
								C125,341.5,124.7,342.6,123.8,343z"/>
						</g>
					</g>
				</g>
			</g>
		</g>
		<g>
			<g>
				<g>
					<g>
						<path class="st0" d="M111.7,336.5c-0.2,0.2-21.7-6.7-22.6-1.5c-1,5.3,14.9,16.8,32.7,24.3c17.8,7.5,37.2,12.6,38.9,7.5
							c1.7-5.2-17.4-16.2-17.4-16.2l-0.2,2.7c0,0,11.8,6.6,11,11.1c-0.8,4.5-15.4,0.7-31.5-7.1s-29.2-16.6-27.7-19.8
							c1.5-3.3,14.8,1.2,14.8,1.2L111.7,336.5z"/>
					</g>
				</g>
			</g>
		</g>
		<g class="st4">
			<g>
				<g>
					<g>
						<g>
							<path class="st5" d="M131.2,335c-0.1,0.2-1.7-0.4-4.3-0.6c-2.6-0.3-6.3,0-9.8,1.8c-3.5,1.8-5.9,4.6-7.2,6.9
								c-1.3,2.3-1.7,3.9-2,3.8c-0.2,0-0.1-1.8,1.1-4.3c0.6-1.3,1.5-2.7,2.7-4.1c1.2-1.4,2.8-2.7,4.8-3.7c1.9-1,3.9-1.5,5.7-1.7
								c1.8-0.2,3.5-0.1,4.9,0.2C129.9,333.9,131.3,334.9,131.2,335z"/>
						</g>
					</g>
				</g>
			</g>
		</g>
	</g>
	<g>
		<g>
			<g>
				<g>
					<g>
						<g>
							<g>
								<path class="st1" d="M104.1,51.9l1,4.5c0.4,1.8-0.2,3.6-1.5,4.9L73.5,89.7c-3.7,3.5-3,9.5,1.4,12l19,11
									c4.6,2.7,10.6,0.1,11.8-5.1l9.3-40.2c0.4-1.8,1.8-3.3,3.6-3.8l3.8-1.1L104.1,51.9z"/>
							</g>
						</g>
					</g>
				</g>
			</g>
			<g>
				<g>
					<g>
						<g>
							<path class="st0" d="M109.7,83.5c-2.1-0.7-4.1-1.8-5.6-3.4c-1.5-1.5-2.6-3.4-4-5c-1.4-1.6-3.3-3-5.4-3.1L75.9,90.3
								c-3,3-2.4,8,1.3,10.1l17,9.9c3.6,2.1,8.3,0.2,9.4-3.9L109.7,83.5z"/>
						</g>
					</g>
				</g>
			</g>
			<g class="st4">
				<g>
					<g>
						<g>
							<g>
								<path class="st5" d="M80.6,99.6c0,0.1-0.5-0.1-1-0.7c-0.5-0.6-1.1-1.8-1.1-3.3c0-0.7,0.1-1.6,0.4-2.4
									c0.3-0.8,0.7-1.6,1.3-2.4c1.1-1.6,2.6-3,4.1-4.5c5.9-6.1,10.9-10.8,11.2-10.5c0.3,0.3-4.3,5.4-10.3,11.5
									c-1.5,1.5-3,2.9-4,4.3c-0.5,0.7-1,1.4-1.3,2.1c-0.3,0.7-0.4,1.4-0.5,2c-0.1,1.3,0.2,2.3,0.6,3
									C80.4,99.2,80.7,99.5,80.6,99.6z"/>
							</g>
						</g>
					</g>
				</g>
			</g>
			<g>
				<g>
					<g>
						<g>
							<g>
								<path class="st3" d="M107.3,86.3c0,0-0.3,0-0.7-0.1c-0.5-0.1-1.1-0.2-2-0.3c-0.8-0.2-1.8-0.4-2.8-1c-0.5-0.3-1-0.6-1.5-1
									c-0.5-0.4-0.9-0.9-1.3-1.4c-0.8-1-1.4-2.1-2-3c-0.6-0.9-1.3-1.6-2-2.1c-0.7-0.5-1.3-0.7-1.8-0.8c-0.5-0.1-0.7-0.1-0.7-0.1
									c0,0,0.1,0,0.2,0c0.1,0,0.3,0,0.5,0c0.5,0.1,1.1,0.3,1.9,0.8c0.7,0.5,1.4,1.2,2.1,2.1c0.7,0.9,1.3,2,2.1,3
									c0.4,0.5,0.8,1,1.2,1.4c0.4,0.4,0.9,0.7,1.4,1c1,0.5,1.9,0.8,2.7,1c0.8,0.2,1.5,0.3,1.9,0.4
									C107.1,86.3,107.3,86.3,107.3,86.3z"/>
							</g>
						</g>
					</g>
				</g>
			</g>
		</g>
		<path class="st1" d="M143.5,46.9c-0.3-2-1.6-3.7-3.1-5.1c-2.5-2.4-5.7-4.2-9.2-4.7c-3.7-0.5-7.6,0.6-10.5,2.9
			c-2.9,2.4-4.5,5.6-4.8,9.3c-0.3,2.4,2.1,4.3,4.5,4.5c2.4,0.1,4.6-1,6.7-2.1c2.1-1,4.5-2.1,6.8-1.6c2.4,0.4,4.6,2.3,6.9,1.7
			C142.8,51.2,143.9,48.9,143.5,46.9z"/>
		<path class="st1" d="M159.2,43c-0.1-1.9-1.6-4.8-5-4.4c-1.4,0-2.9,1.7-3.3,3.1c-0.4,1.4,0.2,2.9,1.2,3.8c1.1,0.9,2.6,1.2,4,0.9
			C157.8,46.1,159.4,44.7,159.2,43z"/>
	</g>
	<g>
		<g>
			<path class="st0" d="M29.1,192.5l-0.5,1.4c-0.3,0.9-0.3,1.8,0.2,2.7l28.3,54.2c0.4,0.8,1.2,1.4,2,1.6l1.6,0.4
				c0.4,0.1,0.7,0.1,1.1,0.1l33-2.6c1.6-0.1,2.9-1.4,3-3.1l0,0c0-0.6-0.1-1.2-0.4-1.7l-30-55.9c-0.6-1.1-1.8-1.8-3.1-1.7L32,190.4
				C30.7,190.5,29.6,191.3,29.1,192.5z"/>
		</g>
		<g>
			<polygon class="st3" points="31.2,191.7 61.2,247.8 95.3,245.2 65.5,189 			"/>
		</g>
		<g>
			<g>
				<g>
					<g>
						<g>
							<path class="st0" d="M64.7,234.3c2.6-1.1,5.5,0.1,6.6,2.7c1.1,2.6-0.1,5.5-2.7,6.6c-2.6,1.1-5.5-0.1-6.6-2.7
								C60.9,238.3,62.1,235.4,64.7,234.3z"/>
						</g>
					</g>
				</g>
			</g>
			<g>
				<g>
					<path class="st5" d="M66.7,236.6l-0.1,0.9c0,0.1,0,0.2,0.2,0.3l0.2,0.1c0,0,0.3,0.1,0.2,0.4c-0.1,0.2-0.6,1.5-0.6,1.5
						s-0.1,0.3-0.4,0.2l-0.3-0.1c-0.1,0-0.2,0-0.2,0.1l-0.6,0.8c-0.1,0.1-0.1,0.2,0,0.3l0.2,0.2c0,0,0.1,0.1,0.1,0.1
						c0.1,0,0.3,0.1,0.5,0c0.3-0.1,1.2-0.7,1.8-2.4c0.5-1.6,0-2.2-0.1-2.3c-0.1-0.1-0.3-0.2-0.4-0.2c0,0-0.1,0-0.2,0
						C66.9,236.4,66.8,236.4,66.7,236.6z"/>
				</g>
			</g>
		</g>
		<g>
			<g>
				<g>
					<g>
						<g>
							<path class="st0" d="M77.9,240.7c-2.1-1.8-2.4-5-0.6-7.1c1.8-2.1,5-2.4,7.1-0.6c2.1,1.8,2.4,5,0.6,7.1
								C83.2,242.3,80,242.5,77.9,240.7z"/>
						</g>
					</g>
				</g>
			</g>
			<g>
				<g>
					<path class="st5" d="M79,237.9l0.9-0.3c0.1,0,0.2-0.1,0.2-0.3l0-0.2c0,0-0.1-0.3,0.2-0.4c0.2,0,1.6-0.1,1.6-0.1s0.4,0,0.4,0.2
						l0,0.3c0,0.1,0.1,0.2,0.2,0.2l1,0.2c0.1,0,0.2,0,0.2-0.1l0.1-0.3c0-0.1,0-0.1,0-0.2c0-0.1-0.1-0.3-0.2-0.4
						c-0.2-0.2-1.2-0.7-2.9-0.5c-1.6,0.2-2,0.9-2,1.1c-0.1,0.1,0,0.4,0,0.5c0,0,0.1,0.1,0.1,0.2C78.8,237.9,78.9,237.9,79,237.9z"/>
				</g>
			</g>
		</g>
		<g>
			<g>
				<path class="st2" d="M63.4,212.7c1.3-0.9,1.7-2.7,0.8-4.6c-1.1-2.5-4-4.3-6.3-3.9c-2.4,0.3-3.4,2.6-2.2,5.2
					c0.9,1.9,2.8,3.4,4.7,3.8c-6.1,2-2.5,9-2.5,9l16.7-1.3C74.5,220.8,70.3,212.7,63.4,212.7z"/>
			</g>
		</g>
		<g>
			<g>
				<path class="st2" d="M83.1,226.5c0,0.3-6,1-13.5,1.5c-7.5,0.6-13.5,0.8-13.5,0.6c0-0.3,6-1,13.5-1.5
					C77.1,226.5,83.1,226.3,83.1,226.5z"/>
			</g>
		</g>
	</g>
	<g>
		<g>
			<g>
				<g>
					<g>
						<g>
							<path class="st2" d="M91.1,418.4l1.1,1.8c1.2,2,3,3.7,5.2,4.8l1.9,0.9l-1.8,1.1c-2,1.2-3.7,3-4.8,5.2l-0.9,1.9l-1.1-1.8
								c-1.2-2-3-3.7-5.2-4.7l-1.9-0.9l1.8-1.1c2-1.2,3.7-3,4.7-5.2L91.1,418.4z"/>
						</g>
					</g>
				</g>
			</g>
		</g>
	</g>
	<g>
		<g>
			<g>
				<g>
					<g>
						<g>
							<path class="st2" d="M443.8,60.6l1.1,1.8c1.2,2,3,3.7,5.2,4.8l1.9,0.9l-1.8,1.1c-2,1.2-3.7,3-4.8,5.2l-0.9,1.9l-1.1-1.8
								c-1.2-2-3-3.7-5.2-4.7l-1.9-0.9l1.8-1.1c2-1.2,3.7-3,4.7-5.2L443.8,60.6z"/>
						</g>
					</g>
				</g>
			</g>
		</g>
	</g>
	<g>
		<g>
			<g>
				<g>
					<g>
						<g>
							<path class="st2" d="M456.4,88.9l1,1.6c1.1,1.8,2.6,3.2,4.5,4.1l1.7,0.8l-1.6,1c-1.8,1.1-3.2,2.6-4.1,4.5l-0.8,1.7l-1-1.6
								c-1.1-1.8-2.6-3.2-4.5-4.1l-1.7-0.8l1.6-1c1.8-1.1,3.2-2.6,4.1-4.5L456.4,88.9z"/>
						</g>
					</g>
				</g>
			</g>
		</g>
	</g>
	<g>
		<g>
			<g>
				<g>
					<g>
						<g>
							<path class="st2" d="M70,397.8l0.8,1.3c0.9,1.4,2.1,2.6,3.6,3.4l1.3,0.7l-1.3,0.8c-1.4,0.9-2.6,2.1-3.4,3.6l-0.7,1.3
								l-0.8-1.3c-0.9-1.4-2.1-2.6-3.6-3.4l-1.3-0.7l1.3-0.8c1.4-0.9,2.6-2.1,3.4-3.6L70,397.8z"/>
						</g>
					</g>
				</g>
			</g>
		</g>
	</g>
	<g>
		<g>
			<g>
				<g>
					<g>
						<g>
							<path class="st2" d="M400.8,411.9l0.8,1.3c0.9,1.4,2.1,2.6,3.6,3.4l1.3,0.7l-1.3,0.8c-1.4,0.9-2.6,2.1-3.4,3.6l-0.7,1.3
								l-0.8-1.3c-0.9-1.4-2.1-2.6-3.6-3.4l-1.3-0.7l1.3-0.8c1.4-0.9,2.6-2.1,3.4-3.6L400.8,411.9z"/>
						</g>
					</g>
				</g>
			</g>
		</g>
	</g>
	<g>
		<g>
			<g>
				<g>
					<g>
						<g>
							<path class="st2" d="M60.3,43.2l0.8,1.3c0.9,1.4,2.1,2.6,3.6,3.4l1.3,0.7l-1.3,0.8c-1.4,0.9-2.6,2.1-3.4,3.6l-0.7,1.3L60,53
								c-0.9-1.4-2.1-2.6-3.6-3.4L55,49l1.3-0.8c1.4-0.9,2.6-2.1,3.4-3.6L60.3,43.2z"/>
						</g>
					</g>
				</g>
			</g>
		</g>
	</g>
	<g>
		<g>
			<g>
				<g>
					<g>
						<g>
							<path class="st2" d="M444.7,278.6l0.8,1.3c0.9,1.4,2.1,2.6,3.6,3.4l1.3,0.7l-1.3,0.8c-1.4,0.9-2.6,2.1-3.4,3.6l-0.7,1.3
								l-0.8-1.3c-0.9-1.4-2.1-2.6-3.6-3.4l-1.3-0.7l1.3-0.8c1.4-0.9,2.6-2.1,3.4-3.6L444.7,278.6z"/>
						</g>
					</g>
				</g>
			</g>
		</g>
	</g>
	<g>
		<g>
			<g>
				<g>
					<g>
						<g>
							<path class="st2" d="M57,136.2l0.8,1.3c0.9,1.4,2.1,2.6,3.6,3.4l1.3,0.7l-1.3,0.8c-1.4,0.9-2.6,2.1-3.4,3.6l-0.7,1.3
								l-0.8-1.3c-0.9-1.4-2.1-2.6-3.6-3.4l-1.3-0.7l1.3-0.8c1.4-0.9,2.6-2.1,3.4-3.6L57,136.2z"/>
						</g>
					</g>
				</g>
			</g>
		</g>
	</g>
</g>
<g id="Background_Simple" class="st6">
	<path class="st7" d="M428.9,101.6l-2.4-4c-20.5-33.8-57.6-54.2-96.7-51.7c-5,0.3-10,1-15,2.1c-35.6,7.6-66.5,34.5-79.3,68.9
		c-7.5,20.3-9.6,43.6-24,59.6c-18.6,20.9-50.3,21.6-78.1,20.7c-27.8-0.9-59.4-0.1-78,20.9c-11.6,13.2-15.3,31.9-14.4,49.5
		c2.5,46.6,35,88.3,76.3,109.1c41.3,20.7,90,22.6,135.2,13.5c63.4-12.8,123.6-47.9,159.9-102C448.8,233.9,457.9,160.1,428.9,101.6z"
		/>
</g>
<g id="Floor">
	<g>
		<path class="st8" d="M457.9,463c0,0.1-88.7,0.3-198.2,0.3c-109.5,0-198.2-0.1-198.2-0.3c0-0.1,88.7-0.3,198.2-0.3
			C369.1,462.7,457.9,462.8,457.9,463z"/>
	</g>
</g>
<g id="Stars">
	<g>
		<g>
			<g>
				<g>
					<g>
						<g>
							<g>
								<path class="st9" d="M109.8,152.6l0.7,1.2c0.8,1.3,2,2.4,3.4,3.1l1.3,0.6l-1.2,0.7c-1.3,0.8-2.4,2-3.1,3.4l-0.6,1.3
									l-0.7-1.2c-0.8-1.3-2-2.4-3.4-3.1l-1.3-0.6l1.2-0.7c1.3-0.8,2.4-2,3.1-3.4L109.8,152.6z"/>
							</g>
						</g>
					</g>
				</g>
			</g>
		</g>
		<g>
			<g>
				<g>
					<g>
						<g>
							<g>
								<path class="st9" d="M369.3,284.3l0.7,1.2c0.8,1.3,2,2.4,3.4,3.1l1.3,0.6l-1.2,0.7c-1.3,0.8-2.4,2-3.1,3.4l-0.6,1.3
									l-0.7-1.2c-0.8-1.3-2-2.4-3.4-3.1l-1.3-0.6l1.2-0.7c1.3-0.8,2.4-2,3.1-3.4L369.3,284.3z"/>
							</g>
						</g>
					</g>
				</g>
			</g>
		</g>
		<g>
			<g>
				<g>
					<g>
						<g>
							<g>
								<path class="st9" d="M228.4,37l0.7,1.2c0.8,1.3,2,2.4,3.4,3.1l1.3,0.6l-1.2,0.7c-1.3,0.8-2.4,2-3.1,3.4l-0.6,1.3l-0.7-1.2
									c-0.8-1.3-2-2.4-3.4-3.1l-1.3-0.6l1.2-0.7c1.3-0.8,2.4-2,3.1-3.4L228.4,37z"/>
							</g>
						</g>
					</g>
				</g>
			</g>
		</g>
		<g>
			<g>
				<g>
					<g>
						<g>
							<g>
								<path class="st9" d="M397.1,150l0.7,1.2c0.8,1.3,2,2.4,3.4,3.1l1.3,0.6l-1.2,0.7c-1.3,0.8-2.4,2-3.1,3.4l-0.6,1.3l-0.7-1.2
									c-0.8-1.3-2-2.4-3.4-3.1l-1.3-0.6l1.2-0.7c1.3-0.8,2.4-2,3.1-3.4L397.1,150z"/>
							</g>
						</g>
					</g>
				</g>
			</g>
		</g>
		<g>
			<g>
				<g>
					<g>
						<g>
							<g>
								<path class="st9" d="M137.1,198.8l0.5,0.9c0.6,1,1.5,1.8,2.5,2.3l0.9,0.5l-0.9,0.5c-1,0.6-1.8,1.5-2.3,2.5l-0.5,0.9
									l-0.5-0.9c-0.6-1-1.5-1.8-2.5-2.3l-0.9-0.5l0.9-0.5c1-0.6,1.8-1.5,2.3-2.5L137.1,198.8z"/>
							</g>
						</g>
					</g>
				</g>
			</g>
		</g>
		<g>
			<g>
				<g>
					<g>
						<g>
							<g>
								<path class="st9" d="M161,310.9l0.5,0.9c0.6,1,1.5,1.8,2.5,2.3l0.9,0.5l-0.9,0.5c-1,0.6-1.8,1.5-2.3,2.5l-0.5,0.9l-0.5-0.9
									c-0.6-1-1.5-1.8-2.5-2.3l-0.9-0.5l0.9-0.5c1-0.6,1.8-1.5,2.3-2.5L161,310.9z"/>
							</g>
						</g>
					</g>
				</g>
			</g>
		</g>
		<g>
			<g>
				<g>
					<g>
						<g>
							<g>
								<path class="st9" d="M389.3,116l0.5,0.9c0.6,1,1.5,1.8,2.5,2.3l0.9,0.5l-0.9,0.5c-1,0.6-1.8,1.5-2.3,2.5l-0.5,0.9l-0.5-0.9
									c-0.6-1-1.5-1.8-2.5-2.3l-0.9-0.5l0.9-0.5c1-0.6,1.8-1.5,2.3-2.5L389.3,116z"/>
							</g>
						</g>
					</g>
				</g>
			</g>
		</g>
		<g>
			<g>
				<g>
					<g>
						<g>
							<g>
								<path class="st9" d="M90.3,175.2l0.5,0.9c0.6,1,1.5,1.8,2.5,2.3l0.9,0.5l-0.9,0.5c-1,0.6-1.8,1.5-2.3,2.5l-0.5,0.9l-0.5-0.9
									c-0.6-1-1.5-1.8-2.5-2.3l-0.9-0.5l0.9-0.5c1-0.6,1.8-1.5,2.3-2.5L90.3,175.2z"/>
							</g>
						</g>
					</g>
				</g>
			</g>
		</g>
		<g>
			<g>
				<g>
					<g>
						<g>
							<g>
								<path class="st9" d="M414.6,121.4l0.3,0.5c0.3,0.6,0.8,1,1.4,1.3l0.5,0.3l-0.5,0.3c-0.6,0.3-1,0.8-1.3,1.4l-0.3,0.5
									l-0.3-0.5c-0.3-0.6-0.8-1-1.4-1.3l-0.5-0.3l0.5-0.3c0.6-0.3,1-0.8,1.3-1.4L414.6,121.4z"/>
							</g>
						</g>
					</g>
				</g>
			</g>
		</g>
		<g>
			<g>
				<g>
					<g>
						<g>
							<g>
								<path class="st9" d="M395.9,265.4l0.3,0.5c0.3,0.6,0.8,1,1.4,1.3l0.5,0.3l-0.5,0.3c-0.6,0.3-1,0.8-1.3,1.4l-0.3,0.5
									l-0.3-0.5c-0.3-0.6-0.8-1-1.4-1.3l-0.5-0.3l0.5-0.3c0.6-0.3,1-0.8,1.3-1.4L395.9,265.4z"/>
							</g>
						</g>
					</g>
				</g>
			</g>
		</g>
		<g>
			<g>
				<g>
					<g>
						<g>
							<g>
								<path class="st9" d="M266.6,25.7l0.3,0.5c0.3,0.6,0.8,1,1.4,1.3l0.5,0.3l-0.5,0.3c-0.6,0.3-1,0.8-1.3,1.4l-0.3,0.5l-0.3-0.5
									c-0.3-0.6-0.8-1-1.4-1.3l-0.5-0.3l0.5-0.3c0.6-0.3,1-0.8,1.3-1.4L266.6,25.7z"/>
							</g>
						</g>
					</g>
				</g>
			</g>
		</g>
		<g>
			<g>
				<g>
					<g>
						<g>
							<g>
								<path class="st9" d="M209.3,51.3l0.3,0.5c0.3,0.6,0.8,1,1.4,1.3l0.5,0.3l-0.5,0.3c-0.6,0.3-1,0.8-1.3,1.4l-0.3,0.5l-0.3-0.5
									c-0.3-0.6-0.8-1-1.4-1.3l-0.5-0.3l0.5-0.3c0.6-0.3,1-0.8,1.3-1.4L209.3,51.3z"/>
							</g>
						</g>
					</g>
				</g>
			</g>
		</g>
		<g>
			<g>
				<g>
					<g>
						<g>
							<g>
								<path class="st9" d="M167.4,324l0.3,0.5c0.3,0.6,0.8,1,1.4,1.3l0.5,0.3l-0.5,0.3c-0.6,0.3-1,0.8-1.3,1.4l-0.3,0.5l-0.3-0.5
									c-0.3-0.6-0.8-1-1.4-1.3l-0.5-0.3l0.5-0.3c0.6-0.3,1-0.8,1.3-1.4L167.4,324z"/>
							</g>
						</g>
					</g>
				</g>
			</g>
		</g>
	</g>
</g>
<g id="Light_Bulb">
	<g>
		<g>
			<g>
				<g>
					<g>
						<path class="st10" d="M314.6,397.8l-124-0.3c-5.1,0-9.3-3.6-9.3-8.1l0,0c0-4.4,4.2-8,9.3-8l124,0.3c5.1,0,9.3,3.6,9.3,8.1l0,0
							C323.9,394.2,319.7,397.8,314.6,397.8z"/>
					</g>
				</g>
			</g>
		</g>
		<g>
			<g>
				<g>
					<g>
						<path class="st10" d="M314.6,378.3l-124-0.3c-5.1,0-9.3-3.6-9.3-8.1l0,0c0-4.4,4.2-8,9.3-8l124,0.3c5.1,0,9.3,3.6,9.3,8.1l0,0
							C323.9,374.7,319.7,378.3,314.6,378.3z"/>
					</g>
				</g>
			</g>
		</g>
		<g>
			<g>
				<g>
					<g>
						<path class="st10" d="M309.6,400.8l-113.5-0.3c-4.7,0-8.5,3.8-8.5,8.5c0,4.7,3.8,8.5,8.5,8.5l12.5,0l16.5,31.5
							c1.9,3.6,5.6,5.9,9.7,5.9l40.6,0.1c4.1,0,7.9-2.3,9.8-5.9l16.1-31.3l8.5,0c4.7,0,8.5-3.8,8.5-8.5
							C318.1,404.6,314.3,400.8,309.6,400.8z"/>
					</g>
				</g>
			</g>
		</g>
		<g>
			<path class="st8" d="M348.6,268.7C348.6,268.7,348.6,268.7,348.6,268.7L348.6,268.7c0,0-0.3,0.5-0.9,1.4c-0.6,0.9-1.5,2.2-2.7,4
				c-0.6,0.9-1.3,1.9-2,2.9c-0.7,1.1-1.4,2.3-2.2,3.7c-0.8,1.3-1.7,2.8-2.6,4.3c-0.9,1.5-1.8,3.3-2.8,5c-0.5,0.9-1,1.8-1.5,2.8
				c-0.3,0.5-0.5,1-0.8,1.4c-0.2,0.5-0.5,1-0.7,1.5c-1,2-2,4.2-3,6.4c-0.9,2.3-1.9,4.7-2.9,7.2c-0.9,2.5-1.9,5.2-2.8,7.9
				c-1.7,5.6-3.4,11.6-4.6,18.1c-1.2,6.5-2.1,13.5-2,21l0,0.2l-0.2,0c-36,0-80.9,0-132.4,0.1l-0.2,0l0-0.2
				c-1.2-14.8-5.3-30-11.9-44.7c-3.3-7.4-7.3-14.6-11.8-21.7c-2.2-3.5-4.6-7-7.1-10.4c-2.5-3.4-5.3-6.7-8-10l-0.3-0.4h0.5h0
				l-0.2,0.4c-11.9-15.3-20.8-34-24.7-54.4c-0.5-2.5-0.9-5.1-1.3-7.7c-0.2-1.3-0.3-2.6-0.4-3.9l-0.2-2l-0.1-2
				c-0.1-1.3-0.2-2.6-0.2-3.9c0-1.3-0.1-2.6-0.1-4c-0.1-1.3,0-2.6,0.1-4c0-1.3,0.1-2.7,0.1-4c0.6-10.6,2.5-21.3,5.7-31.6
				c9.3-29.6,29.3-54.7,54.1-70.1c6.2-3.9,12.6-7.2,19.2-10c6.6-2.8,13.4-4.9,20.3-6.5c13.7-3.2,27.6-3.9,40.9-2.8
				c6.7,0.7,13.2,1.7,19.6,3.3c6.3,1.6,12.5,3.7,18.3,6.1c5.8,2.5,11.4,5.4,16.7,8.5c5.2,3.2,10.2,6.7,14.8,10.5
				c9.2,7.6,17.1,16.1,23.4,25.2c6.4,9,11.4,18.5,15,28c1,2.3,1.7,4.7,2.5,7.1c0.8,2.4,1.4,4.7,2,7c0.5,2.4,1.1,4.7,1.6,7
				c0.2,1.2,0.4,2.3,0.6,3.4c0.2,1.1,0.4,2.3,0.5,3.4c1.3,9,1.5,17.7,1.1,25.7c-0.9,16.1-4.7,29.6-8.9,40.1
				c-2.1,5.3-4.4,9.8-6.4,13.6c-2.1,3.8-4.1,7-5.7,9.4c-0.8,1.2-1.6,2.3-2.2,3.3c-0.7,0.9-1.2,1.7-1.7,2.3
				C349.1,268,348.7,268.5,348.6,268.7c0.1-0.1,0.5-0.7,1.3-1.9c0.5-0.6,1-1.4,1.7-2.3c0.6-0.9,1.4-2,2.2-3.3
				c1.6-2.5,3.6-5.6,5.7-9.5c2-3.9,4.3-8.3,6.4-13.6c4.2-10.5,7.9-24,8.8-40.1c0.5-8,0.2-16.6-1.1-25.7c-0.1-1.1-0.3-2.3-0.5-3.4
				c-0.2-1.1-0.4-2.3-0.6-3.4c-0.5-2.3-1-4.6-1.6-6.9c-0.7-2.3-1.3-4.7-2-7c-0.8-2.3-1.5-4.7-2.5-7.1c-3.7-9.4-8.6-18.9-15-27.9
				c-6.3-9-14.2-17.5-23.4-25.1c-4.6-3.8-9.6-7.2-14.8-10.5c-5.3-3.1-10.8-6-16.7-8.5c-5.8-2.4-12-4.5-18.3-6.1
				c-6.3-1.6-12.8-2.7-19.5-3.3c-13.3-1.2-27.2-0.4-40.8,2.8c-6.8,1.6-13.6,3.7-20.2,6.5c-6.6,2.8-13,6.1-19.2,10
				c-24.7,15.4-44.6,40.4-53.9,69.8c-3.2,10.3-5.1,20.9-5.7,31.5c-0.1,1.3-0.1,2.6-0.1,4c0,1.3-0.1,2.6-0.1,4c0,1.3,0.1,2.6,0.1,3.9
				c0,1.3,0.2,2.6,0.2,3.9l0.1,2l0.2,1.9c0.1,1.3,0.3,2.6,0.4,3.9c0.4,2.6,0.7,5.1,1.3,7.7c3.9,20.3,12.7,39,24.6,54.2l0.3,0.4h-0.5
				h0l0.2-0.4c2.7,3.3,5.5,6.5,8,10c2.5,3.4,4.9,6.9,7.2,10.4c4.5,7.1,8.5,14.3,11.8,21.7c6.7,14.8,10.7,30.1,12,44.9l-0.2-0.2
				c51.4,0,96.4,0,132.4,0.1l-0.2,0.2c-0.1-7.5,0.8-14.5,2.1-21c1.2-6.5,3-12.6,4.7-18.1c1-2.8,1.9-5.4,2.8-7.9c1-2.5,2-4.9,3-7.2
				c1.1-2.2,2.1-4.4,3-6.4c0.2-0.5,0.5-1,0.7-1.5c0.3-0.5,0.5-1,0.8-1.4c0.5-0.9,1-1.9,1.5-2.8c1-1.8,1.8-3.5,2.8-5
				c0.9-1.5,1.8-3,2.6-4.3c0.8-1.3,1.5-2.6,2.3-3.7c0.7-1.1,1.4-2.1,2-2.9c1.2-1.7,2.1-3.1,2.7-4
				C348.3,269.1,348.6,268.7,348.6,268.7L348.6,268.7C348.6,268.7,348.6,268.7,348.6,268.7z"/>
		</g>
		<g>
			<path class="st8" d="M136.7,233.6c0,0,0-0.1-0.1-0.3c-0.1-0.2-0.2-0.5-0.3-0.8c-0.3-0.8-0.6-1.9-1.1-3.3
				c-0.2-0.7-0.5-1.5-0.8-2.4c-0.3-0.9-0.5-1.8-0.7-2.9c-0.5-2.1-1.2-4.4-1.6-7c-0.2-1.3-0.5-2.7-0.8-4.1c-0.3-1.4-0.4-2.9-0.6-4.5
				c-0.5-3.1-0.6-6.4-0.9-10c-0.2-7,0-14.8,1-22.9c1.1-8.1,3-15.6,5.1-22.3c1.2-3.3,2.2-6.5,3.5-9.4c0.6-1.4,1.1-2.9,1.8-4.2
				c0.6-1.3,1.2-2.6,1.8-3.8c1.1-2.4,2.4-4.5,3.4-6.3c0.5-0.9,1-1.8,1.5-2.6c0.5-0.8,0.9-1.4,1.4-2.1c0.8-1.2,1.4-2.2,1.9-2.9
				c0.2-0.3,0.4-0.5,0.5-0.7c0.1-0.2,0.2-0.2,0.2-0.2c0,0,0,0.1-0.1,0.3c-0.1,0.2-0.3,0.4-0.5,0.8c-0.4,0.7-1,1.7-1.8,2.9
				c-0.4,0.6-0.8,1.3-1.3,2.1c-0.5,0.8-0.9,1.7-1.4,2.6c-1,1.9-2.2,3.9-3.3,6.3c-0.6,1.2-1.2,2.5-1.8,3.8c-0.6,1.3-1.1,2.7-1.7,4.2
				c-1.3,2.9-2.3,6-3.4,9.4c-2.1,6.7-3.9,14.2-5,22.3c-1,8-1.3,15.8-1.1,22.8c0.2,3.5,0.4,6.8,0.8,9.9c0.2,1.5,0.3,3.1,0.6,4.5
				c0.3,1.4,0.5,2.8,0.7,4.1c0.4,2.6,1,4.9,1.5,7c0.3,1,0.5,2,0.7,2.9c0.3,0.9,0.5,1.7,0.7,2.4c0.4,1.4,0.7,2.5,1,3.3
				c0.1,0.4,0.2,0.6,0.2,0.9C136.7,233.5,136.7,233.6,136.7,233.6z"/>
		</g>
		<g>
			<path class="st8" d="M174.9,99c0.1,0.1-3,2.9-6.9,6.3c-3.9,3.4-7.1,6-7.2,5.9c-0.1-0.1,3-2.9,6.9-6.3
				C171.6,101.6,174.8,98.9,174.9,99z"/>
		</g>
		<g>
			<path class="st8" d="M350,248.1c0,0,0-0.1,0.1-0.2c0.1-0.2,0.2-0.4,0.3-0.6c0.3-0.6,0.7-1.4,1.2-2.5c0.3-0.5,0.6-1.1,0.9-1.8
				c0.3-0.7,0.6-1.4,0.9-2.1c0.7-1.5,1.5-3.3,2.2-5.3c0.4-1,0.8-2,1.2-3.1c0.4-1.1,0.8-2.2,1.2-3.4c0.8-2.3,1.5-4.9,2.3-7.6
				c1.4-5.4,2.7-11.5,3.5-17.9c0.8-6.4,1-12.6,0.9-18.2c-0.1-2.8-0.2-5.5-0.4-7.9c-0.1-1.2-0.2-2.4-0.3-3.6
				c-0.1-1.1-0.3-2.2-0.4-3.3c-0.2-2.1-0.6-4-0.9-5.7c-0.1-0.8-0.3-1.6-0.4-2.3c-0.2-0.7-0.3-1.3-0.4-1.9c-0.2-1.1-0.4-2-0.6-2.7
				c-0.1-0.3-0.1-0.5-0.1-0.7c0-0.2,0-0.2,0-0.2s0,0.1,0.1,0.2c0,0.2,0.1,0.4,0.2,0.7c0.2,0.6,0.4,1.5,0.7,2.7
				c0.1,0.6,0.3,1.2,0.5,1.9c0.2,0.7,0.3,1.5,0.5,2.3c0.3,1.7,0.7,3.5,1,5.7c0.1,1.1,0.3,2.2,0.5,3.3c0.2,1.2,0.2,2.4,0.3,3.6
				c0.3,2.5,0.3,5.2,0.5,8c0.1,5.6-0.1,11.8-0.9,18.3c-0.8,6.4-2.1,12.5-3.5,17.9c-0.8,2.7-1.5,5.3-2.4,7.6
				c-0.4,1.2-0.8,2.3-1.2,3.4c-0.4,1.1-0.8,2.1-1.2,3.1c-0.7,2-1.6,3.7-2.3,5.3c-0.4,0.8-0.7,1.5-1,2.1c-0.3,0.6-0.6,1.2-0.9,1.8
				c-0.5,1-1,1.8-1.3,2.4c-0.1,0.3-0.3,0.5-0.3,0.6C350,248,350,248.1,350,248.1z"/>
		</g>
	</g>
</g>
<g id="Robot">
	<g>
		<path class="st9" d="M308.5,125.7c-6.8-3.9-14-7.5-21.7-9.2c-1.1-0.2-2.2-0.4-3.3-0.3c-1.1,0.2-2.2,0.8-2.7,1.8
			c-0.7,1.4,0,3,0.8,4.3c1.8,2.8,4.6,4.8,7.4,6.7c7.6,5.1,15.9,9.2,24.1,13.3C312.1,136.4,310.1,131.4,308.5,125.7"/>
		<path class="st9" d="M360.9,140.8c2.2,7.6,4.9,15.1,9.3,21.6c0.6,0.9,1.3,1.8,2.2,2.5c0.9,0.6,2.1,1,3.1,0.6
			c1.4-0.5,2.1-2.2,2.4-3.6c0.6-3.3,0-6.7-0.7-9.9c-2-8.9-5.1-17.6-8.2-26.2C365.7,130.5,363.8,135.5,360.9,140.8"/>
		<g>
			<g>
				<path class="st9" d="M308.4,125.5c0,0,0.5,52.4,29.9,53.4s30.6-53,30.6-53.4c0,0-3.5-7.8-30.3-7.5
					C311.9,118.3,308.4,125.5,308.4,125.5z"/>
			</g>
			<g>
				<g>
					<g>
						<g>
							<path class="st8" d="M347.4,146.3c-0.4,5.6-5.3,9.8-10.8,9.4c-5.6-0.4-9.8-5.3-9.4-10.8c0.4-5.6,5.3-9.8,10.8-9.4
								C343.6,135.9,347.8,140.7,347.4,146.3z"/>
						</g>
					</g>
					<g>
						<g>
							<path class="st5" d="M344.7,146.1c-0.3,4.1-3.8,7.1-7.9,6.8c-4.1-0.3-7.1-3.8-6.8-7.9c0.3-4.1,3.8-7.1,7.9-6.8
								S345,142.1,344.7,146.1z"/>
						</g>
					</g>
				</g>
				<g>
					<g>
						<g>
							<path class="st9" d="M341.1,147.5c0,0-0.1-0.5-0.1-1.2c0-0.8,0-1.9,0-3.2l0.1,0.1c-1.1-0.6-2.4-1.4-3.8-2.2l0.2,0
								c-1.2,0.7-2.5,1.4-3.8,2.2c-0.1,0.2,0.1-0.2,0.1-0.2v0v0l0,0l0,0l0,0l0,0l0,0.1l0,0.1l0,0.3l0,0.6c0,0.4,0,0.8,0,1.1
								c0,0.7,0,1.4,0,2.1l-0.1-0.2c1.4,0.8,2.7,1.6,3.8,2.3l-0.2,0c1.2-0.6,2.1-1.1,2.8-1.5C340.7,147.6,341.1,147.4,341.1,147.5
								c0,0-0.3,0.2-1,0.6c-0.6,0.4-1.6,1-2.8,1.7l-0.1,0l-0.1,0c-1.1-0.6-2.4-1.4-3.8-2.2l-0.1-0.1l0-0.1c0-0.7,0-1.4,0-2.1
								c0-0.4,0-0.7,0-1.1l0-0.6l0-0.3l0-0.1l0-0.1l0,0l0,0v0l0,0v0v0c0,0,0.2-0.4,0.1-0.2c1.4-0.7,2.6-1.5,3.8-2.1l0.1-0.1l0.1,0.1
								c1.4,0.8,2.7,1.6,3.8,2.3l0.1,0.1l0,0.1c0,1.4-0.1,2.5-0.1,3.2C341.2,147.1,341.2,147.5,341.1,147.5z"/>
						</g>
					</g>
				</g>
			</g>
			<g>
				<g>
					<path class="st8" d="M308.3,125.5c0,0,0.1,0,0.2,0c0.1,0,0.3,0.1,0.4,0.2c0.4,0.1,1,0.3,1.7,0.6c0.4,0.1,0.8,0.3,1.2,0.4
						c0.5,0.2,1,0.3,1.5,0.5c1.1,0.3,2.3,0.7,3.6,1c0.7,0.2,1.4,0.4,2.1,0.5c0.7,0.2,1.5,0.3,2.3,0.5c1.6,0.4,3.3,0.6,5.2,0.9
						c3.7,0.5,7.7,0.8,12,0.9c4.3,0,8.3-0.4,12-0.9c1.8-0.3,3.6-0.5,5.2-0.9c0.8-0.2,1.6-0.3,2.3-0.5c0.7-0.2,1.5-0.4,2.1-0.5
						c1.4-0.3,2.6-0.7,3.6-1c0.5-0.2,1-0.3,1.5-0.5c0.4-0.2,0.9-0.3,1.2-0.4c0.7-0.3,1.3-0.5,1.7-0.6c0.2-0.1,0.3-0.1,0.4-0.2
						c0.1,0,0.2,0,0.2,0c0,0,0,0-0.1,0.1c-0.1,0-0.3,0.1-0.4,0.2c-0.4,0.1-1,0.4-1.7,0.6c-0.4,0.1-0.8,0.3-1.2,0.5
						c-0.5,0.2-0.9,0.3-1.5,0.5c-1.1,0.3-2.3,0.7-3.6,1.1c-0.7,0.2-1.4,0.4-2.1,0.6c-0.7,0.2-1.5,0.3-2.3,0.5
						c-1.6,0.4-3.4,0.6-5.2,0.9c-3.7,0.5-7.7,0.9-12,0.9c-4.3,0-8.4-0.4-12-0.9c-1.8-0.3-3.6-0.6-5.2-0.9c-0.8-0.2-1.6-0.3-2.3-0.5
						c-0.7-0.2-1.5-0.4-2.1-0.6c-1.4-0.3-2.6-0.8-3.6-1.1c-0.5-0.2-1-0.3-1.5-0.5c-0.4-0.2-0.9-0.3-1.2-0.5
						c-0.7-0.3-1.3-0.5-1.7-0.6c-0.2-0.1-0.3-0.1-0.4-0.2C308.3,125.5,308.3,125.5,308.3,125.5z"/>
				</g>
			</g>
			<g class="st4">
				<path d="M308.4,125.5c0,0,3.5-7.2,30.3-7.5c26.8-0.3,30.3,7.5,30.3,7.5S341.9,138.9,308.4,125.5z"/>
			</g>
			<g>
				<g>
					<path class="st5" d="M317.6,162.8C317.6,162.8,317.6,162.8,317.6,162.8c-0.1-0.1-0.1-0.2-0.2-0.3c-0.1-0.2-0.3-0.5-0.5-0.9
						c-0.1-0.2-0.2-0.4-0.3-0.7c-0.1-0.2-0.2-0.5-0.4-0.8c-0.3-0.6-0.6-1.2-0.9-2c-0.2-0.4-0.3-0.8-0.5-1.2
						c-0.2-0.4-0.3-0.8-0.5-1.3c-0.3-0.9-0.6-1.9-1-2.9c-0.6-2-1.2-4.3-1.8-6.7c-0.5-2.4-0.9-4.7-1.2-6.8c-0.3-2.1-0.5-4-0.7-5.6
						c-0.1-0.8-0.1-1.5-0.2-2.2c0-0.6-0.1-1.2-0.1-1.6c0-0.4,0-0.8,0-1c0-0.1,0-0.2,0-0.3c0-0.1,0-0.1,0-0.1c0,0,0,0,0,0.1
						c0,0.1,0,0.2,0,0.3c0,0.3,0,0.6,0.1,1c0,0.4,0.1,1,0.1,1.6c0.1,0.6,0.1,1.4,0.2,2.2c0.1,1.6,0.4,3.5,0.7,5.6
						c0.3,2.1,0.7,4.4,1.3,6.8c0.5,2.4,1.1,4.6,1.8,6.7c0.3,1,0.6,2,1,2.9c0.2,0.4,0.3,0.9,0.5,1.3c0.2,0.4,0.3,0.8,0.5,1.2
						c0.3,0.7,0.6,1.4,0.8,2c0.1,0.3,0.2,0.6,0.4,0.8c0.1,0.2,0.2,0.5,0.3,0.7c0.2,0.4,0.3,0.7,0.4,0.9
						C317.5,162.6,317.5,162.6,317.6,162.8C317.6,162.8,317.6,162.8,317.6,162.8z"/>
				</g>
			</g>
			<g>
				<g>
					<path class="st5" d="M331.8,175.4c0,0-0.2,0-0.5-0.1c-0.3,0-0.7-0.1-1.2-0.3c-0.5-0.2-1.1-0.4-1.8-0.7c-0.6-0.3-1.3-0.7-2-1.2
						c-0.7-0.5-1.3-1-1.8-1.5c-0.5-0.5-0.9-1-1.2-1.4c-0.3-0.4-0.6-0.8-0.7-1.1c-0.1-0.3-0.2-0.4-0.2-0.4c0,0,0.4,0.6,1,1.4
						c0.3,0.4,0.8,0.9,1.3,1.4c0.5,0.5,1.1,1,1.8,1.5c0.7,0.5,1.3,0.9,2,1.2c0.6,0.3,1.2,0.5,1.7,0.7
						C331.1,175.2,331.8,175.3,331.8,175.4z"/>
				</g>
			</g>
			<g>
				<g>
					<path class="st5" d="M337.9,156.9c0,0-0.1,0-0.3,0c-0.2,0-0.5,0-0.8,0c-0.7,0-1.7-0.1-2.9-0.5c-0.6-0.2-1.2-0.4-1.9-0.8
						c-0.7-0.4-1.3-0.8-2-1.3c-1.3-1-2.5-2.5-3.3-4.2c-0.8-1.8-1-3.6-0.8-5.3c0.1-0.8,0.2-1.6,0.4-2.3c0.2-0.7,0.5-1.4,0.7-1.9
						c0.6-1.1,1.2-1.9,1.7-2.5c0.2-0.3,0.4-0.4,0.6-0.6c0.1-0.1,0.2-0.2,0.2-0.2c0,0-0.3,0.3-0.7,0.8c-0.5,0.5-1,1.4-1.6,2.5
						c-0.3,0.6-0.5,1.2-0.7,1.9c-0.2,0.7-0.3,1.5-0.4,2.3c-0.1,1.6,0.1,3.5,0.8,5.2c0.8,1.7,2,3.1,3.2,4.2c0.6,0.5,1.3,0.9,1.9,1.3
						c0.7,0.3,1.3,0.6,1.9,0.8c1.2,0.4,2.2,0.5,2.9,0.5C337.5,156.9,337.9,156.9,337.9,156.9z"/>
				</g>
			</g>
			<g>
				<g>
					<path class="st9" d="M336.6,71.1c0,0-25.6-0.3-29.7,21.9c-4.1,22.2,17.6,22.6,23.8,23c2.8,0.2,8.9,0.2,14.2,0.1
						c11.8-0.2,20.2-2.5,23-13.4c0.3-1.3,0.6-2.6,0.6-3.9C369.4,86.7,361.2,70.5,336.6,71.1z"/>
				</g>
				<g>
					<path class="st8" d="M355.2,104.9l-37.2,0.6c-3.9,0.1-7.1-3.1-7.2-7l0,0c-0.1-3.9,3.1-7.1,7-7.2l37.2-0.6
						c3.9-0.1,7.1,3.1,7.2,7l0,0C362.2,101.6,359.1,104.8,355.2,104.9z"/>
				</g>
				<g>
					<path class="st5" d="M325.7,97.7c-0.2,1.2-1.4,2-2.7,1.8c-1.2-0.2-2-1.4-1.8-2.7c0.2-1.2,1.4-2,2.7-1.8
						C325.2,95.3,326,96.5,325.7,97.7z"/>
				</g>
				<g>
					<path class="st5" d="M351.7,97.3c-0.2,1.2-1.4,2-2.7,1.8c-1.2-0.2-2-1.4-1.8-2.7c0.2-1.2,1.4-2,2.7-1.8
						C351.2,94.9,352,96.1,351.7,97.3z"/>
				</g>
				<g>
					<g>
						<path class="st5" d="M332.2,96.7c0.2,0,0.1,0.8,0.6,1.9c0.2,0.5,0.6,1.1,1.2,1.6c0.6,0.5,1.3,0.9,2.1,0.9
							c0.8,0.1,1.6-0.2,2.3-0.5c0.6-0.4,1.1-0.9,1.5-1.3c0.7-0.9,0.7-1.7,0.9-1.7c0.1,0,0.1,0.2,0.1,0.6c0,0.4-0.1,0.9-0.4,1.5
							c-0.3,0.6-0.8,1.3-1.6,1.8c-0.8,0.5-1.8,0.9-2.9,0.8c-1.1-0.1-2-0.6-2.7-1.3c-0.7-0.6-1.1-1.4-1.2-2c-0.2-0.7-0.2-1.2-0.1-1.6
							C332.1,96.9,332.2,96.7,332.2,96.7z"/>
					</g>
				</g>
				<g>
					<g>
						<path class="st5" d="M333.4,72.8C333.4,72.8,333.3,72.8,333.4,72.8c-0.2,0-0.3,0-0.4,0c-0.2,0-0.6,0-1,0.1
							c-0.9,0.1-2.2,0.3-3.8,0.6c-1.6,0.4-3.4,1-5.4,1.9c-1.9,0.9-4,2.1-5.9,3.7c-1.9,1.6-3.5,3.3-4.7,5.1c-1.3,1.7-2.2,3.4-2.8,4.9
							c-0.7,1.5-1.1,2.7-1.3,3.6c-0.1,0.4-0.2,0.8-0.3,1c0,0.1-0.1,0.2-0.1,0.3c0,0.1,0,0.1,0,0.1c0,0,0,0,0-0.1
							c0-0.1,0-0.2,0.1-0.3c0.1-0.2,0.1-0.6,0.2-1c0.2-0.9,0.6-2.1,1.3-3.6c0.6-1.5,1.6-3.2,2.8-5c1.2-1.8,2.8-3.5,4.8-5.1
							c1.9-1.6,4-2.8,5.9-3.7c2-0.9,3.8-1.5,5.4-1.8c1.6-0.4,2.9-0.5,3.8-0.6c0.5,0,0.8,0,1,0C333.1,72.8,333.2,72.8,333.4,72.8
							C333.3,72.8,333.4,72.8,333.4,72.8z"/>
					</g>
				</g>
				<g>
					<g>
						<path class="st5" d="M308.3,103.5c0,0-0.2-0.3-0.4-0.8c-0.2-0.5-0.4-1.2-0.5-2c-0.1-0.8-0.2-1.6-0.1-2.1
							c0-0.5,0.1-0.9,0.1-0.9c0.1,0,0,1.3,0.2,2.9C307.9,102.2,308.4,103.5,308.3,103.5z"/>
					</g>
				</g>
				<g>
					<g>
						<path class="st5" d="M349.1,89.5c0,0.1-4.9,0.1-10.9,0.1c-6,0-10.9,0-10.9-0.1c0-0.1,4.9-0.1,10.9-0.1
							C344.2,89.4,349.1,89.4,349.1,89.5z"/>
					</g>
				</g>
				<g>
					<g>
						<path class="st5" d="M330.4,114.4c0,0-0.1,0-0.2,0c-0.1,0-0.3,0-0.5,0c-0.2,0-0.5,0-0.8,0c-0.3,0-0.7,0-1.1,0
							c-0.8,0-1.8-0.1-2.9-0.2c-1.1-0.1-2.3-0.3-3.5-0.6c-1.2-0.3-2.4-0.7-3.4-1c-1-0.4-1.9-0.8-2.7-1.1c-0.4-0.2-0.7-0.4-1-0.5
							c-0.3-0.2-0.5-0.3-0.7-0.4c-0.2-0.1-0.3-0.2-0.5-0.3c-0.1-0.1-0.2-0.1-0.2-0.1c0,0,0.1,0,0.2,0.1c0.1,0.1,0.3,0.1,0.5,0.2
							c0.2,0.1,0.5,0.2,0.8,0.4c0.3,0.1,0.6,0.3,1,0.5c0.8,0.4,1.7,0.7,2.7,1.1c1,0.4,2.2,0.7,3.4,1c1.2,0.3,2.4,0.5,3.5,0.6
							c1.1,0.1,2.1,0.2,2.9,0.2c0.4,0,0.8,0,1.1,0c0.3,0,0.6,0,0.8,0c0.2,0,0.4,0,0.5,0C330.3,114.4,330.4,114.4,330.4,114.4z"/>
					</g>
				</g>
			</g>
			<g>
				<g>
					<path class="st5" d="M361.7,128.7C361.7,128.7,361.7,128.7,361.7,128.7c-0.2,0.1-0.3,0.1-0.4,0.2c-0.3,0.1-0.6,0.2-1.1,0.4
						c-0.5,0.2-1.1,0.4-1.8,0.6c-0.7,0.2-1.5,0.5-2.4,0.7c-0.4,0.1-0.9,0.2-1.4,0.4c-0.5,0.1-1,0.2-1.5,0.4c-1,0.3-2.2,0.5-3.4,0.7
						c-2.4,0.4-5,0.7-7.8,0.9c-2.8,0.2-5.5,0.2-7.9,0c-1.2-0.1-2.4-0.1-3.4-0.3c-0.5-0.1-1.1-0.1-1.5-0.2c-0.5-0.1-1-0.1-1.4-0.2
						c-0.9-0.1-1.7-0.3-2.4-0.4c-0.7-0.1-1.3-0.2-1.8-0.4c-0.5-0.1-0.9-0.2-1.2-0.3c-0.1,0-0.2-0.1-0.3-0.1c-0.1,0-0.1,0-0.1,0
						c0,0,0,0,0.1,0c0.1,0,0.2,0,0.3,0.1c0.3,0.1,0.7,0.1,1.2,0.2c0.5,0.1,1.1,0.2,1.8,0.3c0.7,0.1,1.5,0.3,2.4,0.4
						c0.5,0.1,0.9,0.1,1.4,0.2c0.5,0.1,1,0.1,1.5,0.2c1.1,0.1,2.2,0.2,3.4,0.2c2.4,0.1,5.1,0.1,7.9-0.1c2.8-0.2,5.4-0.5,7.8-0.9
						c1.2-0.2,2.3-0.4,3.4-0.7c0.5-0.1,1-0.2,1.5-0.3c0.5-0.1,0.9-0.2,1.4-0.4c0.9-0.2,1.7-0.5,2.4-0.7c0.7-0.2,1.3-0.4,1.8-0.5
						c0.5-0.2,0.9-0.3,1.1-0.4c0.1,0,0.2-0.1,0.3-0.1C361.7,128.7,361.7,128.7,361.7,128.7z"/>
				</g>
			</g>
		</g>
	</g>
</g>
<g id="Rocket">
	<g>
		<g>
			<path class="st9" d="M118.4,300.9l0.1,13.9c0,0,23-13,16.3-25.4L118.4,300.9z"/>
			<path class="st9" d="M120.6,268.8c0,0-16.6-6.1-29.2,5.2l12.9,7.3L120.6,268.8z"/>
			<g>
				<path class="st1" d="M104.4,281.3c0.5,0.7,14,19.5,14,19.5l35.2-25c6.1-4.4,7.3-13,2.4-18.8l0,0c-4.4-5.2-12.2-6.1-17.7-1.9
					L104.4,281.3z"/>
				<g>
					<path class="st8" d="M104.4,281.3c0,0,0.1-0.1,0.3-0.2c0.2-0.2,0.5-0.4,0.9-0.7c0.8-0.6,2-1.5,3.4-2.7c3-2.4,7.4-5.8,12.8-9.9
						c2.7-2.1,5.7-4.4,8.9-6.9c1.6-1.2,3.2-2.5,4.9-3.8c0.8-0.7,1.7-1.3,2.6-2c0.9-0.7,1.9-1.3,2.9-1.7c0.5-0.3,1.1-0.4,1.6-0.6
						c0.6-0.1,1.1-0.3,1.7-0.3c1.2-0.2,2.4-0.2,3.6,0c2.4,0.3,4.7,1.3,6.6,2.9c1,0.8,1.8,1.8,2.5,2.8c0.7,1.1,1.2,2.2,1.6,3.5
						c0.7,2.5,0.7,5.2-0.1,7.8c-0.8,2.4-2.2,4.6-4.2,6.1c-2,1.5-3.9,2.8-5.8,4.2c-3.8,2.7-7.6,5.4-11.1,7.9c-7.1,5-13.5,9.5-19,13.4
						l-0.2,0.1l-0.1-0.2c-4.3-6.1-7.8-11-10.2-14.4c-1.2-1.7-2.1-3-2.7-3.9c-0.3-0.4-0.5-0.8-0.7-1
						C104.4,281.4,104.3,281.3,104.4,281.3c0,0,0.1,0.1,0.3,0.3c0.2,0.2,0.4,0.6,0.8,1c0.7,0.9,1.6,2.2,2.8,3.9
						c2.4,3.4,6,8.2,10.3,14.2l-0.3,0c5.4-3.9,11.9-8.4,18.9-13.5c3.5-2.5,7.3-5.2,11.1-7.9c1.9-1.4,3.9-2.7,5.8-4.2
						c1.9-1.5,3.3-3.6,4-5.9c0.8-2.4,0.8-5.1,0.1-7.4c-0.4-1.2-0.9-2.3-1.6-3.3c-0.7-1-1.5-2-2.4-2.7c-1.8-1.6-4.1-2.5-6.4-2.8
						c-1.1-0.2-2.3-0.2-3.4,0c-0.6,0-1.1,0.2-1.7,0.3c-0.5,0.2-1.1,0.3-1.6,0.6c-2.1,0.8-3.7,2.4-5.4,3.6c-1.7,1.3-3.3,2.6-4.9,3.8
						c-3.2,2.4-6.1,4.7-8.9,6.8c-5.4,4.1-9.8,7.5-12.9,9.8c-1.5,1.1-2.7,2-3.5,2.7c-0.4,0.3-0.7,0.5-0.9,0.7
						C104.5,281.2,104.4,281.3,104.4,281.3z"/>
				</g>
			</g>
			<path class="st9" d="M121.2,280.2l-22,15.8c0,0,0.9,2.4,1.6,2.2c0.5-0.2,17.1-11.5,22.5-15.2c0.9-0.6,1-1.8,0.3-2.6l0,0
				C122.9,279.8,121.9,279.7,121.2,280.2z"/>
			<g>
				<path class="st5" d="M144.1,270.3c0.3,4.1-2.8,7.6-6.9,7.8c-4.1,0.3-7.6-2.8-7.8-6.9c-0.3-4.1,2.8-7.6,6.9-7.8
					C140.3,263.2,143.8,266.3,144.1,270.3z"/>
				<g>
					<path class="st8" d="M144.1,270.3c-0.1,0-0.1-0.7-0.4-1.7c-0.4-1.1-1.2-2.6-2.9-3.8c-0.9-0.5-1.9-1-3.1-1.1
						c-1.2-0.1-2.5,0-3.7,0.6c-1.2,0.5-2.4,1.5-3.1,2.7c-0.8,1.2-1.2,2.7-1.1,4.3c0.1,1.5,0.7,3,1.6,4.1c0.9,1.1,2.2,1.9,3.5,2.3
						c1.3,0.4,2.6,0.4,3.8,0.1c1.2-0.3,2.2-0.9,2.9-1.5c1.6-1.3,2.2-3,2.4-4.1C144.1,271,144,270.3,144.1,270.3c0,0,0,0.2,0.1,0.5
						c0,0.3,0,0.8-0.1,1.4c-0.2,1.2-0.8,2.9-2.4,4.3c-0.8,0.7-1.8,1.3-3.1,1.6c-1.2,0.3-2.6,0.4-4,0c-1.4-0.4-2.7-1.2-3.7-2.4
						c-1-1.2-1.7-2.7-1.8-4.4c-0.1-1.6,0.3-3.3,1.2-4.6c0.8-1.3,2.1-2.3,3.4-2.9c1.3-0.6,2.7-0.7,4-0.6c1.3,0.2,2.4,0.6,3.2,1.2
						c1.8,1.2,2.6,2.9,2.9,4c0.2,0.6,0.2,1,0.2,1.3C144.1,270.2,144.1,270.3,144.1,270.3z"/>
				</g>
			</g>
		</g>
		<path class="st9" d="M155.2,274.5c11.8-11.1,9.7-23.9,9.7-23.9c-15.9-4.2-26.6,4.6-26.6,4.6C148.9,256.7,154.6,263.1,155.2,274.5z
			"/>
	</g>
</g>
<g id="Character">
	<g>
		<g>
			<g>
				<path class="st11" d="M280.9,227.4l4.1,37.8l24.3,8.1l1,11.8l-34.3-2.3c0,0-10.6,0.3-12.9-13.7l-0.6-36.6L280.9,227.4z"/>
			</g>
			<g>
				<g>
					<g>
						<g>
							<path class="st11" d="M331.4,284.9c-0.5,0.5-1.2,0.7-1.8,0.5c-0.1,0-0.3-0.1-0.4-0.2c-0.9-0.5-0.3-2.4-0.3-2.4l-4.3-1.9
								c0,0-6.8,2.2-9.6,4.2c-2.7,1.9-7.5-1.5-7.5-1.5l0.7-10l10.2-5.3c0,0-0.6,0.3,0.3-0.9c0.9-1.2,3.4,0,3.4,0
								c0.6-0.6,2.3-0.4,2.3-0.4l7,2.7c1.4,0.6,2.6,1.8,3,3.2l1.8,5.7c0,0,0.7,3.9,0.2,4.7c-0.7,1.1-1.9,0.5-1.9,0.5s-1,2.2-1.6,2.1
								C332.4,285.7,331.4,284.9,331.4,284.9L331.4,284.9z"/>
						</g>
					</g>
				</g>
				<g>
					<g>
						<g>
							<g>
								<path class="st12" d="M317,283.9c0,0,0.2-0.1,0.5-0.2c0.4-0.2,0.9-0.4,1.5-0.7c1.3-0.5,3.2-1.3,5.6-2l-0.1,0
									c1.3,0.6,2.7,1.2,4.3,1.9l-0.1-0.2c-0.1,0.4-0.2,0.7-0.2,1.1c0,0.4,0,0.8,0.2,1.2c0.1,0.2,0.3,0.4,0.5,0.4
									c0.2,0.1,0.4,0.2,0.6,0.2c0.4,0.1,0.9-0.1,1.3-0.3c0.1-0.1,0.2-0.1,0.3-0.2l0.1-0.1l0,0l0,0l0,0c0.1,0-0.5,0-0.3,0l0,0l0,0
									l0.1,0.1c0.2,0.1,0.3,0.2,0.5,0.4c0.2,0.1,0.4,0.2,0.6,0.3c0.1,0,0.2,0.1,0.3,0.1c0.1,0,0.2,0.1,0.4,0
									c0.3-0.1,0.4-0.3,0.6-0.5c0.1-0.2,0.3-0.4,0.4-0.6c0.2-0.4,0.4-0.8,0.6-1.2l-0.3,0.1c0.6,0.3,1.3,0.3,1.8-0.1
									c0.2-0.2,0.5-0.5,0.5-0.8c0.1-0.3,0.1-0.6,0.1-0.9c0-1.2-0.2-2.4-0.4-3.5l0,0l0,0c-0.3-1-0.6-2-0.9-3
									c-0.2-0.6-0.4-1.3-0.6-1.9c-0.2-0.6-0.4-1.3-0.7-1.9c-0.3-0.6-0.8-1.1-1.3-1.5c-0.5-0.4-1.2-0.7-1.7-0.9
									c-2.3-0.9-4.5-1.8-6.6-2.6l0,0l0,0c-0.4,0-0.9,0-1.3,0c-0.4,0.1-0.9,0.1-1.2,0.5l0.3,0c-0.7-0.5-1.6-0.8-2.4-0.5
									c-0.8,0.3-1.3,0.9-1.6,1.5l0.1-0.1c-2.9,1.5-5.3,2.7-7,3.6c-0.8,0.4-1.4,0.8-1.9,1c-0.4,0.2-0.7,0.4-0.6,0.4
									c0,0,0.2-0.1,0.7-0.3c0.5-0.2,1.1-0.5,1.9-0.9c1.7-0.8,4.1-2,7.1-3.5l0,0l0-0.1c0.3-0.6,0.8-1.1,1.4-1.3
									c0.6-0.2,1.4,0,2,0.4l0.1,0.1l0.1-0.1c0.2-0.2,0.6-0.3,1-0.3c0.4,0,0.8,0,1.2,0l-0.1,0c2.1,0.8,4.3,1.7,6.6,2.6
									c0.6,0.2,1.1,0.4,1.6,0.8c0.5,0.4,0.9,0.8,1.2,1.4c0.3,0.5,0.5,1.2,0.7,1.8c0.2,0.6,0.4,1.3,0.6,1.9c0.3,1,0.6,2.1,1,3l0,0
									c0.2,1.2,0.4,2.3,0.4,3.5c0,0.3,0,0.6-0.1,0.8c0,0.2-0.2,0.4-0.4,0.6c-0.4,0.3-0.9,0.3-1.3,0.1l-0.2-0.1l-0.1,0.2
									c-0.2,0.4-0.4,0.8-0.6,1.1c-0.2,0.3-0.5,0.7-0.7,0.8c0,0-0.1,0-0.2,0c-0.1,0-0.2-0.1-0.3-0.1c-0.2-0.1-0.4-0.2-0.5-0.3
									c-0.2-0.1-0.3-0.2-0.5-0.3l-0.1-0.1l0,0l0,0c0.3,0-0.4,0-0.3,0l0,0l0,0l0,0l0,0c-0.1,0.1-0.1,0.1-0.2,0.2
									c-0.3,0.2-0.7,0.3-1,0.3c-0.2,0-0.3-0.1-0.5-0.2c-0.2-0.1-0.3-0.2-0.4-0.3c-0.3-0.6-0.2-1.4,0-2l0-0.2l-0.1-0.1
									c-1.6-0.7-3-1.3-4.3-1.9l-0.1,0l-0.1,0c-2.4,0.8-4.3,1.6-5.6,2.2c-0.6,0.3-1.1,0.6-1.4,0.7C317.2,283.8,317,283.9,317,283.9
									z"/>
							</g>
						</g>
					</g>
				</g>
			</g>
			<g>
				<g>
					<path class="st12" d="M322.7,270.1c0,0,0.7,0.6,2.1,1.3c1.4,0.7,3.4,1.5,5.9,2l-0.2-0.2c0,0.4,0.1,0.8,0.1,1.2
						c0.3,2.7,1.3,5.1,2.2,6.7c0.4,0.8,0.9,1.4,1.2,1.8c0.3,0.4,0.5,0.6,0.5,0.6c0.1,0-0.6-0.9-1.4-2.5c-0.8-1.6-1.7-3.9-2-6.6
						c-0.1-0.4-0.1-0.8-0.1-1.2l0-0.2l-0.2,0c-2.4-0.5-4.4-1.2-5.8-1.8C323.6,270.5,322.8,270,322.7,270.1z"/>
				</g>
			</g>
			<g>
				<g>
					<path class="st12" d="M328.5,276.1c-0.1,0-0.2,2.1,0.7,4.5c0.9,2.4,2.3,4,2.4,3.9c0.1-0.1-1.1-1.8-1.9-4.1
						C328.8,278.2,328.6,276.1,328.5,276.1z"/>
				</g>
			</g>
			<g>
				<g>
					<path class="st12" d="M306.9,280.2c0,0,0.1,0.1,0.2,0.2c0.1,0.1,0.3,0.3,0.6,0.5c0.6,0.4,1.5,0.8,2.8,1.1
						c1.2,0.2,2.9,0.2,4.5-0.4c1.6-0.6,3.3-1.9,4.3-3.7l-0.3,0.1c1.5,0.7,3.3,1.3,5.2,1.6c0.7,0.1,1.3,0.2,2,0.2
						c0.7,0,1.3,0.1,2-0.1c0.3-0.1,0.7-0.3,0.9-0.6c0.2-0.3,0.2-0.7,0.2-1.1c-0.1-0.4-0.3-0.7-0.6-0.8c-0.3-0.1-0.5-0.3-0.8-0.4
						c-2.1-1.1-4-2-5.6-2.7c-1.6-0.7-3-1.2-3.9-1.6c-0.9-0.3-1.5-0.5-1.5-0.5c0,0,0.5,0.3,1.4,0.6c0.9,0.4,2.2,1,3.8,1.7
						c1.6,0.7,3.5,1.7,5.5,2.8c0.3,0.1,0.5,0.3,0.8,0.4c0.2,0.1,0.4,0.3,0.4,0.6c0.1,0.2,0,0.5-0.1,0.7c-0.1,0.2-0.3,0.3-0.6,0.4
						c-0.6,0.2-1.2,0.1-1.8,0.1c-0.6,0-1.3-0.1-2-0.2c-1.8-0.3-3.5-0.9-5-1.6l-0.2-0.1l-0.1,0.2c-1,1.7-2.5,3-4,3.6
						c-1.5,0.6-3.1,0.7-4.3,0.5c-1.2-0.2-2.1-0.6-2.7-0.9C307.2,280.4,306.9,280.2,306.9,280.2z"/>
				</g>
			</g>
		</g>
		<g>
			<g>
				<g>
					<g>
						<g>
							<g>
								<g>
									<g>
										<path class="st8" d="M336.2,421.4c0,0,0.1-0.3,0-0.9c-0.1-0.6-0.3-1.5-1-2.4c-0.2-0.2-0.3-0.5-0.6-0.7
											c-0.2-0.2-0.7-0.4-1.1-0.2c-0.2,0.1-0.4,0.2-0.5,0.5c-0.1,0.2,0,0.5,0,0.6c0.1,0.4,0.3,0.6,0.5,1c0.4,0.6,0.7,1.2,1.1,1.9
											c0.2,0.4,0.8,0.7,1.3,0.6c0.5-0.1,0.9-0.3,1.2-0.5c0.7-0.5,1.3-1.1,1.8-1.7c0.3-0.3,0.5-0.6,0.7-0.9
											c0.2-0.3,0.4-0.6,0.5-1.1c0.1-0.4-0.1-1-0.5-1.2c-0.5-0.2-0.9,0.1-1.1,0.3c-0.5,0.4-0.9,0.9-1.2,1.4
											c-0.6,0.9-1,1.7-1.2,2.3c-0.2,0.6-0.2,0.9-0.2,0.9c0.1,0,0.4-1.3,1.7-3c0.3-0.4,0.7-0.9,1.2-1.2c0.2-0.2,0.5-0.3,0.7-0.2
											c0.2,0.1,0.3,0.3,0.2,0.6c-0.1,0.3-0.3,0.6-0.5,0.9c-0.2,0.3-0.4,0.6-0.7,0.9c-0.5,0.6-1.1,1.1-1.7,1.6
											c-0.3,0.2-0.6,0.4-1,0.4c-0.3,0-0.6-0.1-0.8-0.4c-0.4-0.6-0.8-1.3-1.1-1.9c-0.2-0.3-0.4-0.6-0.5-0.9
											c-0.1-0.3,0-0.4,0.1-0.5c0.4-0.2,0.9,0.3,1.1,0.7C336.1,420,336.1,421.4,336.2,421.4z"/>
									</g>
								</g>
							</g>
						</g>
					</g>
				</g>
			</g>
			<g>
				<g>
					<g>
						<g>
							<g>
								<g>
									<polygon class="st11" points="311.8,422.2 299.7,448.5 280.1,439.4 292.7,406.9 									"/>
								</g>
							</g>
						</g>
					</g>
				</g>
				<g>
					<g>
						<g>
							<g>
								<g>
									<g>
										<g>
											<g>
												<g>
													<g>
														<g>
															<g>
																<g>
																	<g>
																		<g>
																			<path class="st9" d="M302,446.7l-7.1,13.5c0,0,18.1,18.7,16.4,22.9l-42.6-20.4l11.7-27.1L302,446.7z"/>
																		</g>
																	</g>
																</g>
															</g>
														</g>
													</g>
												</g>
											</g>
										</g>
									</g>
								</g>
							</g>
							<g>
								<g>
									<g>
										<g>
											<g>
												<g>
													<g>
														<g>
															<g>
																<g>
																	<g>
																		<g>
																			<g>
																				<path class="st0" d="M282.6,452.1c-0.9-0.2-1.9,0.5-2.2,1.4c-0.2,0.9,0.4,2,1.4,2.1c0.9,0.2,2.2-0.6,2.3-1.5
																					c0.1-0.9-0.7-2.1-1.7-2.1"/>
																			</g>
																		</g>
																	</g>
																</g>
															</g>
														</g>
													</g>
												</g>
											</g>
										</g>
									</g>
								</g>
							</g>
							<g class="st13">
								<g>
									<g>
										<g>
											<g>
												<g>
													<g>
														<g>
															<g>
																<g>
																	<g>
																		<g>
																			<path class="st5" d="M268.7,462.7l1.8-3.4l40.2,20.9c0,0,1.5,1.7,0.6,3L268.7,462.7z"/>
																		</g>
																	</g>
																</g>
															</g>
														</g>
													</g>
												</g>
											</g>
										</g>
									</g>
								</g>
							</g>
							<g>
								<g>
									<g>
										<g>
											<g>
												<g>
													<g>
														<g>
															<g>
																<g>
																	<g>
																		<g>
																			<g>
																				<path class="st8" d="M295.7,460.3c-0.1,0.2-1.2-0.2-2.5,0c-1.3,0.1-2.3,0.8-2.5,0.6c-0.2-0.1,0.7-1.2,2.4-1.4
																					C294.7,459.3,295.8,460.2,295.7,460.3z"/>
																			</g>
																		</g>
																	</g>
																</g>
															</g>
														</g>
													</g>
												</g>
											</g>
										</g>
									</g>
								</g>
							</g>
							<g>
								<g>
									<g>
										<g>
											<g>
												<g>
													<g>
														<g>
															<g>
																<g>
																	<g>
																		<g>
																			<g>
																				<path class="st8" d="M299.3,464.3c0,0.2-1.1,0.1-2.2,0.7c-1.1,0.5-1.8,1.4-2,1.3c-0.2-0.1,0.2-1.3,1.6-2
																					C298.1,463.6,299.4,464.1,299.3,464.3z"/>
																			</g>
																		</g>
																	</g>
																</g>
															</g>
														</g>
													</g>
												</g>
											</g>
										</g>
									</g>
								</g>
							</g>
							<g>
								<g>
									<g>
										<g>
											<g>
												<g>
													<g>
														<g>
															<g>
																<g>
																	<g>
																		<g>
																			<g>
																				<path class="st8" d="M299.3,470.9c-0.2,0,0-1.2,1.1-2.1c1.1-0.9,2.3-0.9,2.3-0.7c0,0.2-0.9,0.5-1.8,1.3
																					C300,470.1,299.5,471,299.3,470.9z"/>
																			</g>
																		</g>
																	</g>
																</g>
															</g>
														</g>
													</g>
												</g>
											</g>
										</g>
									</g>
								</g>
							</g>
							<g>
								<g>
									<g>
										<g>
											<g>
												<g>
													<g>
														<g>
															<g>
																<g>
																	<g>
																		<g>
																			<g>
																				<path class="st8" d="M297.7,455.1c-0.2,0.1-1-0.6-2.2-1.1c-1.2-0.5-2.3-0.6-2.3-0.8c0-0.2,1.2-0.6,2.6,0
																					C297.3,453.9,297.9,455,297.7,455.1z"/>
																			</g>
																		</g>
																	</g>
																</g>
															</g>
														</g>
													</g>
												</g>
											</g>
										</g>
									</g>
								</g>
							</g>
						</g>
					</g>
				</g>
				<g>
					<g>
						<g>
							<g>
								<g>
									<path class="st8" d="M306,443.2l32-80c0,0-0.7-13.6-3.2-18c-2.5-4.3-78.6-29.4-78.6-29.4s-19.4-4.7-32.3,0
										c-12.9,4.7-22.6,20.8-20.8,29.8c1.8,9,10,16.3,10,16.3l55.3,1l30.5,11.1l-20.5,58.9L306,443.2z"/>
								</g>
							</g>
						</g>
					</g>
				</g>
				<g>
					<g>
						<g>
							<g>
								<g>
									<polygon class="st11" points="334.4,388.6 335.1,417.5 313.6,418 310.5,383.3 									"/>
								</g>
							</g>
						</g>
					</g>
				</g>
				<g>
					<g>
						<g>
							<g>
								<g>
									<g>
										<g>
											<g>
												<g>
													<g>
														<g>
															<g>
																<g>
																	<g>
																		<g>
																			<path class="st9" d="M336.4,414.9l-0.4,15.2c0,0,24.5,8.8,24.9,13.3l-47.3,0.5l-1.5-29.5L336.4,414.9z"/>
																		</g>
																	</g>
																</g>
															</g>
														</g>
													</g>
												</g>
											</g>
										</g>
									</g>
								</g>
							</g>
							<g>
								<g>
									<g>
										<g>
											<g>
												<g>
													<g>
														<g>
															<g>
																<g>
																	<g>
																		<g>
																			<g>
																				<path class="st0" d="M321.4,428.3c-0.9,0.3-1.5,1.3-1.3,2.2c0.2,0.9,1.3,1.6,2.2,1.3c0.9-0.2,1.7-1.5,1.4-2.4
																					c-0.3-0.9-1.6-1.6-2.4-1.1"/>
																			</g>
																		</g>
																	</g>
																</g>
															</g>
														</g>
													</g>
												</g>
											</g>
										</g>
									</g>
								</g>
							</g>
							<g class="st13">
								<g>
									<g>
										<g>
											<g>
												<g>
													<g>
														<g>
															<g>
																<g>
																	<g>
																		<g>
																			<path class="st5" d="M313.6,444l0.1-3.8l45.3,1c0,0,2.1,0.9,1.9,2.4L313.6,444z"/>
																		</g>
																	</g>
																</g>
															</g>
														</g>
													</g>
												</g>
											</g>
										</g>
									</g>
								</g>
							</g>
							<g>
								<g>
									<g>
										<g>
											<g>
												<g>
													<g>
														<g>
															<g>
																<g>
																	<g>
																		<g>
																			<g>
																				<path class="st8" d="M336.8,429.9c0,0.2-1.2,0.3-2.3,1.1c-1.1,0.7-1.7,1.7-1.9,1.6c-0.2,0,0.1-1.4,1.5-2.3
																					C335.4,429.4,336.8,429.7,336.8,429.9z"/>
																			</g>
																		</g>
																	</g>
																</g>
															</g>
														</g>
													</g>
												</g>
											</g>
										</g>
									</g>
								</g>
							</g>
							<g>
								<g>
									<g>
										<g>
											<g>
												<g>
													<g>
														<g>
															<g>
																<g>
																	<g>
																		<g>
																			<g>
																				<path class="st8" d="M341.8,431.9c0.1,0.2-0.9,0.6-1.7,1.6c-0.8,1-1,2-1.2,2c-0.2,0-0.4-1.3,0.6-2.5
																					C340.4,431.8,341.8,431.7,341.8,431.9z"/>
																			</g>
																		</g>
																	</g>
																</g>
															</g>
														</g>
													</g>
												</g>
											</g>
										</g>
									</g>
								</g>
							</g>
							<g>
								<g>
									<g>
										<g>
											<g>
												<g>
													<g>
														<g>
															<g>
																<g>
																	<g>
																		<g>
																			<g>
																				<path class="st8" d="M344.6,437.8c-0.2,0.1-0.5-1.1,0-2.4c0.6-1.3,1.7-1.8,1.8-1.6c0.1,0.2-0.6,0.9-1,1.9
																					C344.9,436.8,344.9,437.8,344.6,437.8z"/>
																			</g>
																		</g>
																	</g>
																</g>
															</g>
														</g>
													</g>
												</g>
											</g>
										</g>
									</g>
								</g>
							</g>
							<g>
								<g>
									<g>
										<g>
											<g>
												<g>
													<g>
														<g>
															<g>
																<g>
																	<g>
																		<g>
																			<g>
																				<path class="st8" d="M336.3,424.3c-0.1,0.2-1.2-0.1-2.5,0c-1.3,0.1-2.3,0.5-2.4,0.3c-0.1-0.2,0.8-1,2.4-1.1
																					C335.3,423.4,336.4,424.2,336.3,424.3z"/>
																			</g>
																		</g>
																	</g>
																</g>
															</g>
														</g>
													</g>
												</g>
											</g>
										</g>
									</g>
								</g>
							</g>
						</g>
					</g>
				</g>
				<g>
					<g>
						<g>
							<g>
								<g>
									<path class="st8" d="M321.8,308.3c0,0,12.9-1,14.3,13c1.4,14,2.8,79.3,2.8,79.3l-30.2,2.5l-4.7-66.8l-48.1-20.5
										C256.1,315.9,313.2,306.5,321.8,308.3z"/>
								</g>
							</g>
						</g>
					</g>
				</g>
				<g>
					<g>
						<g>
							<g>
								<g>
									<path class="st8" d="M268.6,289.4c0,0,7.8,22,6.3,24.4c-1.5,2.4-21.6,12.5-21.6,12.5l-50.4,19.4c0,0-5.2-8.2-5.2-20.9
										c0-12.6,17.5-35.4,17.5-35.4H268.6z"/>
								</g>
							</g>
						</g>
					</g>
				</g>
				<g>
					<g>
						<g>
							<g>
								<g>
									<g>
										<path class="st10" d="M253.7,314.7c0,0,0.1,0.1,0.2,0.1c0.2,0.1,0.4,0.2,0.7,0.3c0.7,0.3,1.6,0.7,2.8,1.2
											c2.5,1.1,6,2.6,10.5,4.6c9,3.9,21.6,9.3,36.2,15.6l-0.2-0.2c0.5,6.6,1,13.7,1.5,21.1c1.2,17.2,2.4,33.1,3.3,45.7l0,0.2
											l0.2,0c9.2-0.8,16.7-1.5,22-1.9c2.6-0.2,4.6-0.4,6-0.6c0.7-0.1,1.2-0.1,1.6-0.2c0.4,0,0.5-0.1,0.5-0.1c0,0-0.2,0-0.5,0
											c-0.4,0-0.9,0.1-1.6,0.1c-1.4,0.1-3.5,0.3-6.1,0.4c-5.3,0.4-12.8,1-22,1.7l0.2,0.2c-0.9-12.6-2-28.5-3.1-45.7
											c-0.5-7.4-1-14.5-1.5-21.1l0-0.2l-0.2-0.1c-14.6-6.2-27.2-11.6-36.2-15.4c-4.5-1.9-8-3.4-10.5-4.4
											c-1.2-0.5-2.2-0.9-2.8-1.2c-0.3-0.1-0.5-0.2-0.7-0.3C253.8,314.8,253.7,314.7,253.7,314.7z"/>
									</g>
								</g>
							</g>
						</g>
					</g>
				</g>
				<g>
					<g>
						<g>
							<g>
								<g>
									<g>
										<path class="st10" d="M213.6,316.9c0,0,0.5-0.1,1.4-0.4c1-0.3,2.3-0.7,3.8-1.2c3.2-1,7.6-2.4,12.7-3.2
											c5.1-0.8,9.7-0.5,13,0.2c3.3,0.7,5.2,1.6,5.2,1.5c0,0-0.4-0.3-1.3-0.7c-0.9-0.4-2.2-0.8-3.8-1.2
											c-3.3-0.8-8.1-1.1-13.2-0.3c-5.1,0.8-9.6,2.3-12.7,3.4c-1.6,0.6-2.9,1-3.7,1.4C214.1,316.7,213.6,316.9,213.6,316.9z"/>
									</g>
								</g>
							</g>
						</g>
					</g>
				</g>
				<g>
					<g>
						<g>
							<g>
								<g>
									<g>
										<path class="st10" d="M220.7,305.4c0,0.1,1.7-0.2,4.4,0c1.4,0.1,3,0.3,4.8,0.5c1.8,0.2,3.8,0.5,5.8,0.8
											c4.1,0.7,7.6,2.2,9.9,3.7c2.3,1.5,3.3,2.8,3.4,2.8c0,0-0.2-0.4-0.7-0.9c-0.5-0.6-1.3-1.3-2.5-2.1c-2.2-1.6-5.8-3.2-10-3.9
											c-2.1-0.4-4.1-0.6-5.9-0.8c-1.8-0.2-3.4-0.3-4.8-0.4c-1.4,0-2.5,0-3.3,0.1C221.1,305.2,220.7,305.3,220.7,305.4z"/>
									</g>
								</g>
							</g>
						</g>
					</g>
				</g>
			</g>
		</g>
		<g>
			<g>
				<g>
					<path class="st8" d="M243,128.9c-5.8-1-10.9,1.2-15.8,4.5c-4.9,3.3-8.6,8.2-10.7,13.7c-2.2,5.8-2.8,12.3-1.1,18.2
						c1.7,6,5.8,11.3,11.3,14.1c7.5,3.8,17.2,2.5,23.9-2.6c6.7-5.1,10.6-13.5,10.9-22c0.2-5.8-1.2-11.8-4.4-16.6
						C254,133.3,248.8,129.7,243,128.9"/>
				</g>
			</g>
			<g>
				<g>
					<g>
						<g>
							<path class="st8" d="M226.5,148.6c0.8-2.2,0.5-4.7,0.9-7c0.7-5.2,4.9-9.3,9.7-11.3c4.5-1.9,10-1.5,15.4,0.3
								c3.7,1.2,7.2,3.3,9.7,6.3c3.3,4,4.4,9.6,3,14.6l-26.5-3.9c-2.5,2.1-5,4.1-8,5.3c-0.9,0.3-1.8,0.6-2.8,0.4
								c-0.9-0.1-1.8-0.8-2.1-1.7C225.5,150.6,226.1,149.6,226.5,148.6z"/>
						</g>
					</g>
				</g>
				<g>
					<g>
						<g>
							<path class="st11" d="M253,137.8l-23.1,4.9c-2.2,0.1-4,2-4,4.2l0.3,50.1c0,3.4,1.2,6.7,3.3,9.4l2.2,2.8
								c5,6.5,15.2,5.8,19.1-1.4c0.3-0.5,0.5-1,0.5-1.3c0.1-0.5,0.2-0.7,0.2-1.1l0.4-4.9c0.2-4.5,0.3-9,0.3-8.9
								c0,0,9.5-1.2,11.9-13.4c1.2-6.1,1.3-16.1,1.1-24.3C264.9,146.5,260.4,137.3,253,137.8z"/>
						</g>
					</g>
				</g>
				<g>
					<g>
						<g>
							<g>
								<g>
									<g>
										<g>
											<g>
												<g>
													<g>
														<g>
															<g>
																<g>
																	<g>
																		<g>
																			<g>
																				<g>
																					<g>
																						<g>
																							<path class="st8" d="M261.2,164.1c0,0.8-0.7,1.5-1.6,1.5c-0.9,0-1.6-0.6-1.6-1.5c0-0.8,0.7-1.5,1.6-1.5
																								C260.5,162.6,261.2,163.3,261.2,164.1z"/>
																						</g>
																					</g>
																				</g>
																			</g>
																		</g>
																	</g>
																</g>
															</g>
														</g>
													</g>
												</g>
											</g>
										</g>
									</g>
								</g>
							</g>
							<g>
								<g>
									<g>
										<g>
											<g>
												<g>
													<g>
														<g>
															<g>
																<g>
																	<g>
																		<g>
																			<g>
																				<g>
																					<g>
																						<g>
																							<g>
																								<path class="st8" d="M262.7,159c-0.2,0.2-1.4-0.7-3.1-0.8c-1.7-0.1-3,0.7-3.1,0.5c-0.1-0.1,0.1-0.5,0.7-0.8
																									c0.5-0.4,1.5-0.7,2.5-0.7c1.1,0,1.9,0.5,2.4,0.9C262.7,158.6,262.8,158.9,262.7,159z"/>
																							</g>
																						</g>
																					</g>
																				</g>
																			</g>
																		</g>
																	</g>
																</g>
															</g>
														</g>
													</g>
												</g>
											</g>
										</g>
									</g>
								</g>
							</g>
						</g>
						<g>
							<g>
								<g>
									<g>
										<g>
											<g>
												<g>
													<g>
														<g>
															<g>
																<g>
																	<g>
																		<g>
																			<g>
																				<g>
																					<g>
																						<g>
																							<path class="st8" d="M245.6,163.3c0,0.8-0.7,1.5-1.6,1.5c-0.9,0-1.6-0.6-1.6-1.5c0-0.8,0.7-1.5,1.6-1.5
																								C244.9,161.8,245.6,162.5,245.6,163.3z"/>
																						</g>
																					</g>
																				</g>
																			</g>
																		</g>
																	</g>
																</g>
															</g>
														</g>
													</g>
												</g>
											</g>
										</g>
									</g>
								</g>
							</g>
							<g>
								<g>
									<g>
										<g>
											<g>
												<g>
													<g>
														<g>
															<g>
																<g>
																	<g>
																		<g>
																			<g>
																				<g>
																					<g>
																						<g>
																							<g>
																								<path class="st8" d="M246.7,158.6c-0.2,0.2-1.4-0.7-3.1-0.8c-1.7-0.1-3,0.7-3.1,0.5
																									c-0.1-0.1,0.1-0.5,0.7-0.8c0.5-0.4,1.5-0.7,2.5-0.7c1.1,0,1.9,0.5,2.4,0.9
																									C246.6,158.2,246.8,158.5,246.7,158.6z"/>
																							</g>
																						</g>
																					</g>
																				</g>
																			</g>
																		</g>
																	</g>
																</g>
															</g>
														</g>
													</g>
												</g>
											</g>
										</g>
									</g>
								</g>
							</g>
						</g>
						<g>
							<g>
								<g>
									<g>
										<g>
											<g>
												<g>
													<g>
														<g>
															<g>
																<g>
																	<g>
																		<g>
																			<g>
																				<g>
																					<g>
																						<g>
																							<path class="st8" d="M251.7,171.5c0-0.1,1.1-0.2,2.8-0.4c0.4,0,0.8-0.1,0.9-0.4c0.1-0.3,0-0.8-0.2-1.3
																								c-0.4-1.1-0.7-2.2-1.2-3.3c-1.6-4.8-2.7-8.7-2.5-8.7c0.2-0.1,1.6,3.7,3.2,8.5c0.4,1.2,0.7,2.3,1.1,3.4
																								c0.1,0.5,0.4,1.1,0.2,1.7c-0.1,0.3-0.5,0.5-0.7,0.6c-0.3,0.1-0.5,0.1-0.7,0.1
																								C252.8,171.6,251.7,171.6,251.7,171.5z"/>
																						</g>
																					</g>
																				</g>
																			</g>
																		</g>
																	</g>
																</g>
															</g>
														</g>
													</g>
												</g>
											</g>
										</g>
									</g>
								</g>
							</g>
						</g>
						<g>
							<g>
								<g>
									<g>
										<g>
											<g>
												<g>
													<g>
														<g>
															<g>
																<g>
																	<g>
																		<g>
																			<g>
																				<g>
																					<g>
																						<path class="st12" d="M252.1,191.6c0,0-8.3,0.2-16.3-5c0,0,3.8,8.7,16.1,8L252.1,191.6z"/>
																					</g>
																				</g>
																			</g>
																		</g>
																	</g>
																</g>
															</g>
														</g>
													</g>
												</g>
											</g>
										</g>
									</g>
								</g>
							</g>
						</g>
						<g>
							<g>
								<g>
									<g>
										<g>
											<g>
												<g>
													<g>
														<g>
															<g>
																<g>
																	<g>
																		<g>
																			<g>
																				<g>
																					<g>
																						<path class="st12" d="M250.9,175.6c-0.6-0.8-1.6-1.3-2.7-1.2c-0.7,0.1-1.5,0.4-2,1c-0.5,0.6-0.6,1.4-0.2,2
																							c0.4,0.7,1.4,0.8,2.2,0.6c0.8-0.2,1.5-0.7,2.2-1.2c0.2-0.1,0.4-0.3,0.5-0.5C251,176,251.1,175.8,250.9,175.6"
																							/>
																					</g>
																				</g>
																			</g>
																		</g>
																	</g>
																</g>
															</g>
														</g>
													</g>
												</g>
											</g>
										</g>
									</g>
								</g>
							</g>
						</g>
						<g>
							<g>
								<g>
									<g>
										<g>
											<g>
												<g>
													<g>
														<g>
															<g>
																<g>
																	<g>
																		<g>
																			<g>
																				<g>
																					<g>
																						<g>
																							<path class="st8" d="M246.7,172.5c0.3,0,0.2,1.8,1.7,3.2c1.5,1.4,3.5,1.2,3.5,1.5c0,0.1-0.5,0.3-1.3,0.3
																								c-0.8,0-2-0.3-2.9-1.1c-0.9-0.8-1.3-1.9-1.3-2.7C246.4,172.9,246.6,172.5,246.7,172.5z"/>
																						</g>
																					</g>
																				</g>
																			</g>
																		</g>
																	</g>
																</g>
															</g>
														</g>
													</g>
												</g>
											</g>
										</g>
									</g>
								</g>
							</g>
						</g>
					</g>
				</g>
				<g>
					<g>
						<g>
							<g>
								<g>
									<g>
										<g>
											<g>
												<g>
													<g>
														<g>
															<g>
																<g>
																	<g>
																		<g>
																			<path class="st8" d="M246.6,153.6c-0.2,0.5-1.9,0.2-3.9,0.3c-2,0.1-3.6,0.6-3.9,0.2c-0.1-0.2,0.2-0.6,0.9-1
																				c0.7-0.4,1.7-0.8,2.9-0.9c1.2-0.1,2.3,0.1,3,0.5C246.3,153,246.6,153.4,246.6,153.6z"/>
																		</g>
																	</g>
																</g>
															</g>
														</g>
													</g>
												</g>
											</g>
										</g>
									</g>
								</g>
							</g>
						</g>
					</g>
				</g>
				<g>
					<g>
						<g>
							<g>
								<g>
									<g>
										<g>
											<g>
												<g>
													<g>
														<g>
															<g>
																<g>
																	<g>
																		<g>
																			<path class="st8" d="M262.5,151.6c-0.3,0.4-1.5-0.1-2.9-0.1c-1.4-0.1-2.6,0.2-2.9-0.3c-0.1-0.2,0.1-0.6,0.6-0.9
																				c0.5-0.3,1.4-0.6,2.4-0.5c1,0.1,1.8,0.4,2.3,0.9C262.5,151,262.7,151.4,262.5,151.6z"/>
																		</g>
																	</g>
																</g>
															</g>
														</g>
													</g>
												</g>
											</g>
										</g>
									</g>
								</g>
							</g>
						</g>
					</g>
				</g>
				<g>
					<g>
						<g>
							<path class="st8" d="M222.3,145c2.4-7,12.9-16.6,20.3-16l11.7,7.3c-0.8,4-4,7.5-7.9,8.6c-2.1,0.6-4.6,0.7-5.9,2.5
								c-1.3,1.8-0.6,4.5-1.8,6.4c-1.7,2.6-6.2,2.4-7.5,5.2c-0.6,1.2-0.3,2.7-0.9,3.9c-0.8,1.6-5,3.6-6.7,3
								c-1.7-0.6-1.7-3.5-2.2-5.1c-0.9-2.6-0.5-4-0.1-5.5C222,152.1,221.1,148.4,222.3,145z"/>
						</g>
					</g>
				</g>
				<g>
					<g>
						<g>
							<g>
								<g>
									<g>
										<path class="st11" d="M228.6,167.6c0-0.9-0.9-3.1-1.8-3.3c-2.4-0.5-6.7-0.4-7,5.7c-0.4,8.4,8.1,7,8.1,6.8
											C227.8,176.6,228.4,170.8,228.6,167.6z"/>
									</g>
								</g>
							</g>
						</g>
					</g>
				</g>
				<g>
					<g>
						<g>
							<g>
								<g>
									<g>
										<g>
											<path class="st12" d="M225.4,173.5c0,0-0.2,0.1-0.4,0.2c-0.2,0.1-0.7,0.2-1.1,0c-0.9-0.4-1.5-1.8-1.5-3.3
												c0-0.8,0.2-1.5,0.5-2.1c0.3-0.6,0.7-1,1.1-1.1c0.4-0.1,0.8,0.2,0.8,0.4c0.1,0.2,0,0.4,0.1,0.4c0,0,0.2-0.1,0.1-0.5
												c0-0.2-0.1-0.4-0.3-0.5c-0.2-0.2-0.5-0.3-0.8-0.2c-0.6,0-1.3,0.6-1.6,1.2c-0.4,0.6-0.6,1.5-0.6,2.3c0,1.7,0.8,3.3,2,3.7
												c0.6,0.2,1.1,0,1.3-0.2C225.4,173.7,225.4,173.5,225.4,173.5z"/>
										</g>
									</g>
								</g>
							</g>
						</g>
					</g>
				</g>
			</g>
			<g>
				<g>
					<path class="st8" d="M220.5,142.9L220.5,142.9c0-2.6-3.2-4.3-5.8-4.9c-2.5-0.6-5.2,0.2-7.5,1.4c-1.3,0.7-2.7,1.8-3,3.3
						c-0.3,1.5,1.1,3.3,2.6,2.8c-2.7,0.9-4.1,4.6-2.7,7.1c1.4,2.5,5.3,3.2,7.5,1.3c-0.7,2.4-2.3,4.5-4.3,5.9
						c4.3,0.6,8.9-1.2,11.6-4.6C221.4,151.8,222.1,146.9,220.5,142.9z"/>
				</g>
			</g>
			<g>
				<g>
					<g>
						<path class="st9" d="M214.7,156.2c-0.1,0-0.3-0.9-0.3-2.5c0-1.6,0.2-3.8,1-6c0.8-2.3,1.9-4.2,2.9-5.4c1-1.2,1.7-1.9,1.8-1.8
							c0.2,0.1-2.7,2.9-4.1,7.4C214.3,152.3,214.9,156.2,214.7,156.2z"/>
					</g>
				</g>
			</g>
			<g>
				<g>
					<path class="st8" d="M251.8,133.9c0.8,3.4,5.9,7.8,8.2,10.4c4.3,5.1,5.2,6.7,5.1,18c2-3.9,3.6-7.7,3.5-12.1
						c-0.2-4.4-1.8-8.8-4.8-12C260.7,135,256.2,133.2,251.8,133.9"/>
				</g>
			</g>
		</g>
		<g>
			<g>
				<g>
					<g>
						<g>
							<path class="st9" d="M287.3,226.9c0,0-9-15-11.5-18.1c-2.3-2.9-5.4-4.5-7.4-5.4c-1.1-0.5-2.3-0.8-3.5-1l-13-2.9
								c0,0,0,8.8-9.3,9.4c-9.3,0.5-17.1-12.4-17.1-12.4s-15,2.3-18.6,4.2c-3.6,1.8-9.2,4.2-12.3,19.7l-2.2,15.2l25.8,2.4l2.5,38.4
								l12.8,8.9c0,0,35.5,9.2,37.8,9.8c2.3,0.6,3-57.1,3-57.1S283.5,232.1,287.3,226.9z"/>
						</g>
					</g>
				</g>
			</g>
			<g>
				<g>
					<path class="st8" d="M270.3,220.5c0,0,0.2,0.4,0.5,1.1c0.3,0.7,0.7,1.8,1.1,3.1c0.8,2.7,1.8,6.4,2.3,10.7
						c0.5,4.2,0.5,8.1,0.4,10.9c-0.1,1.4-0.2,2.5-0.3,3.3c-0.1,0.8-0.2,1.2-0.2,1.2c0,0,0-0.4,0-1.2c0.1-0.8,0.1-1.9,0.1-3.3
						c0.1-2.8,0-6.6-0.5-10.8c-0.5-4.2-1.4-8-2.1-10.6c-0.4-1.3-0.7-2.4-0.9-3.2C270.4,220.9,270.3,220.5,270.3,220.5z"/>
				</g>
			</g>
		</g>
		<g>
			<g>
				<g>
					<path class="st11" d="M269.2,283.4l-48.6-10.6l-2.2-34.8l-21.6-2c0,0,0.8,23.8,1.6,30.8c1.2,10.2,7.2,24,10.7,26.8
						c3.5,2.8,62.3,1.5,62.3,1.5L269.2,283.4z"/>
				</g>
			</g>
			<g>
				<g>
					<path class="st11" d="M296.8,289.7c-0.3,0.7-1.1,1.1-1.8,1.1c-0.2,0-0.3,0-0.5-0.1c-1.1-0.3-1-2.5-1-2.5l-5.2-0.8
						c0,0-6.7,4.3-9.1,7.2c-2.4,2.9-8.5,0.5-8.5,0.5l-2.1-11l9.5-8.6c0,0-0.6,0.5,0.1-1.1c0.7-1.6,3.6-1,3.6-1
						c0.5-0.8,2.4-1.1,2.4-1.1l8.3,1c1.7,0.2,3.2,1.2,4.2,2.6l3.5,5.6c0,0,1.9,4,1.6,4.9c-0.5,1.4-1.9,1.1-1.9,1.1s-0.4,2.6-1.1,2.7
						S296.8,289.7,296.8,289.7L296.8,289.7z"/>
				</g>
			</g>
			<g>
				<g>
					<g>
						<path class="st12" d="M279.1,281.8c0,0.1,1.1,0,2.9,0.1c1.8,0.1,4.2,0.4,6.8,1.3c1.3,0.4,2.5,1,3.5,1.5c1,0.6,2.1,1,2.4,1.8
							c0.2,0.4,0.1,0.7-0.1,1c-0.2,0.3-0.4,0.4-0.6,0.5c-0.4,0.2-0.7,0.1-0.7,0.1c0,0,0.3,0.2,0.8,0.1c0.3-0.1,0.6-0.2,0.8-0.6
							c0.2-0.3,0.4-0.8,0.2-1.3c-0.2-0.5-0.6-0.9-1-1.2c-0.5-0.3-0.9-0.6-1.5-0.9c-1-0.6-2.3-1.1-3.6-1.6c-2.6-0.9-5.1-1.2-7-1.1
							C280.2,281.5,279.1,281.7,279.1,281.8z"/>
					</g>
				</g>
			</g>
			<g>
				<g>
					<g>
						<path class="st12" d="M278.5,287.1c0,0.2,3.4,0,7.6,0.3c4.2,0.2,7.5,0.8,7.5,0.6c0-0.1-0.8-0.3-2.2-0.5
							c-1.4-0.2-3.2-0.5-5.3-0.6c-2.1-0.1-4-0.1-5.4,0C279.3,286.9,278.5,287,278.5,287.1z"/>
					</g>
				</g>
			</g>
			<g>
				<g>
					<g>
						<path class="st12" d="M296.8,289.4c0,0,0.1-0.3,0.1-0.9c0-0.6,0.1-1.4,0-2.4c0-0.5-0.1-1.1-0.2-1.7c-0.1-0.6-0.4-1.2-0.8-1.8
							c-0.8-1.1-1.8-2.3-3.1-3.2c-1.3-0.9-2.6-1.6-4-2c-1.3-0.4-2.6-0.5-3.6-0.5c-1,0-1.9,0-2.4,0c-0.6,0-0.9,0.1-0.9,0.1
							c0,0.1,1.3,0.1,3.3,0.3c1,0.1,2.2,0.2,3.5,0.6c1.2,0.4,2.5,1.1,3.8,2c1.3,0.9,2.3,1.9,3,3c0.8,1,1,2.3,1.1,3.3
							C296.7,288.2,296.6,289.4,296.8,289.4z"/>
					</g>
				</g>
			</g>
			<g>
				<g>
					<g>
						<path class="st12" d="M284.7,274.3c0,0.1,1.2,0.1,3.2,0.3c1.9,0.3,5,0.4,6.7,3.1c1.9,2.4,3.5,4.7,4.2,6.5
							c0.7,1.8,0.7,3.1,0.8,3.1c0,0,0.1-0.3,0-0.9c0-0.6-0.1-1.4-0.5-2.4c-0.6-2-2.2-4.3-4.1-6.7c-0.5-0.6-1-1.2-1.6-1.6
							c-0.6-0.5-1.3-0.7-2-0.9c-1.3-0.4-2.5-0.5-3.5-0.6C286,274.2,284.7,274.3,284.7,274.3z"/>
					</g>
				</g>
			</g>
			<g>
				<g>
					<g>
						<path class="st12" d="M281.1,292.6c0,0,0.2-0.1,0.5-0.4c0.4-0.3,0.8-0.7,1.4-1.1c1.2-1,3.1-2.3,5.5-3.8l-0.1,0
							c1.5,0.3,3.3,0.6,5.1,0.9l-0.2-0.2c0,0.4,0,0.8,0.1,1.3c0.1,0.4,0.2,0.9,0.6,1.2c0.2,0.2,0.5,0.3,0.7,0.3
							c0.2,0.1,0.5,0.1,0.7,0c0.5-0.1,1-0.3,1.3-0.7c0.1-0.1,0.2-0.2,0.2-0.3l0-0.1l0,0l0,0l0,0c0.1,0-0.6,0.2-0.3,0.1l0,0l0,0
							l0.2,0.1c0.2,0.1,0.4,0.2,0.7,0.2c0.2,0.1,0.5,0.1,0.7,0.2c0.1,0,0.2,0,0.4,0c0.1,0,0.3,0,0.5-0.1c0.3-0.2,0.4-0.5,0.5-0.7
							c0.1-0.2,0.2-0.5,0.3-0.7c0.1-0.5,0.2-1,0.3-1.5l-0.3,0.2c0.7,0.1,1.5,0,1.9-0.7c0.2-0.3,0.4-0.6,0.4-1c0-0.4-0.1-0.7-0.2-1
							c-0.4-1.3-0.9-2.5-1.4-3.7l0,0l0,0c-0.6-0.9-1.2-2-1.9-3c-0.4-0.6-0.8-1.3-1.2-1.9c-0.4-0.6-0.7-1.3-1.3-1.8
							c-0.5-0.5-1.2-1-1.9-1.2c-0.7-0.3-1.4-0.4-2.1-0.4c-2.8-0.3-5.4-0.6-7.8-0.9l0,0l0,0c-0.5,0.1-0.9,0.2-1.4,0.4
							c-0.4,0.2-0.9,0.4-1.2,0.8l0.3-0.1c-0.9-0.4-1.9-0.4-2.7,0.1c-0.8,0.5-1.1,1.3-1.3,2.1l0.1-0.1c-2.7,2.4-4.9,4.4-6.5,5.9
							c-0.7,0.7-1.3,1.2-1.8,1.6c-0.4,0.4-0.6,0.6-0.6,0.6c0,0,0.2-0.2,0.7-0.5c0.5-0.4,1.1-0.9,1.8-1.5c1.6-1.4,3.9-3.4,6.7-5.7
							l0,0l0-0.1c0.2-0.7,0.5-1.4,1.2-1.8c0.6-0.4,1.5-0.4,2.3-0.1l0.2,0.1l0.1-0.2c0.2-0.3,0.6-0.5,1-0.6c0.4-0.1,0.8-0.3,1.3-0.3
							l-0.1,0c2.5,0.3,5.1,0.6,7.8,0.9c0.7,0.1,1.4,0.1,2,0.4c0.6,0.3,1.2,0.6,1.7,1.1c0.5,0.5,0.8,1.1,1.2,1.7
							c0.4,0.6,0.8,1.3,1.2,1.9c0.6,1,1.3,2,1.9,3l0,0c0.5,1.2,1.1,2.4,1.4,3.6c0.1,0.3,0.2,0.6,0.2,0.9c0,0.2-0.1,0.5-0.2,0.7
							c-0.3,0.4-0.9,0.6-1.4,0.5l-0.3,0l0,0.3c-0.1,0.5-0.2,0.9-0.3,1.4c-0.1,0.4-0.3,0.9-0.5,1.1c0,0-0.1,0-0.2,0
							c-0.1,0-0.2,0-0.3,0c-0.2,0-0.4-0.1-0.6-0.2c-0.2-0.1-0.4-0.1-0.6-0.2l-0.2-0.1l0,0l0,0c0.3-0.1-0.4,0.1-0.3,0.1l0,0l0,0l0,0
							l0,0.1c-0.1,0.1-0.1,0.2-0.2,0.2c-0.3,0.3-0.6,0.5-1,0.6c-0.2,0-0.4,0-0.6,0c-0.2,0-0.3-0.1-0.5-0.2c-0.5-0.5-0.6-1.4-0.6-2.2
							l0-0.2l-0.2,0c-1.9-0.3-3.6-0.6-5.2-0.8l-0.1,0l-0.1,0c-2.4,1.5-4.2,2.9-5.4,3.9c-0.6,0.5-1,0.9-1.3,1.2
							C281.3,292.5,281.1,292.6,281.1,292.6z"/>
					</g>
				</g>
			</g>
		</g>
		<g>
			<g>
				<g>
					<g>
						<path class="st0" d="M350.1,257.7l-64.1,0.5c-2.1,0-4.1,1-4.4,3.1l-7,46.7h-33c-1.1,0-1.9,0.9-1.9,1.9c0,1.1,0.9,1.9,1.9,1.9
							h32.4h6.2H347l7.2-49.3C354.6,260,352.6,257.7,350.1,257.7z"/>
					</g>
				</g>
				<g>
					<g>
						<g>
							<path class="st8" d="M350.1,257.7c0,0,0.3,0,1,0.1c0.6,0.1,1.7,0.5,2.4,1.6c0.4,0.5,0.7,1.2,0.8,2c0.1,0.8-0.1,1.7-0.2,2.6
								c-0.3,1.9-0.6,4.1-0.9,6.5c-1.4,9.8-3.4,23.9-5.9,41.2l0,0.2l-0.2,0c-27.3,0-63.1,0-102.2,0.1c-0.9,0-1.8,0-2.8,0
								c-0.4,0-1,0-1.5-0.3c-0.5-0.3-0.8-0.7-1-1.2c-0.4-1,0.1-2.2,1-2.7c0.4-0.3,1-0.3,1.4-0.3l1.4,0c3.6,0,7.2,0,10.7,0
								c7.1,0,13.9,0,20.5,0l-0.2,0.2c2.5-16.7,4.9-32.3,7-46.3c0.1-0.9,0.5-1.8,1.2-2.4c0.7-0.6,1.6-0.9,2.4-1.1
								c0.9-0.1,1.7-0.1,2.6-0.1c0.8,0,1.7,0,2.5,0c3.3,0,6.5,0,9.6-0.1c6.2,0,11.9-0.1,17.1-0.1c10.4-0.1,18.7-0.1,24.4-0.1
								c2.8,0,5,0,6.5,0c0.7,0,1.3,0,1.7,0C349.9,257.7,350.1,257.7,350.1,257.7s-0.2,0-0.6,0c-0.4,0-1,0-1.7,0
								c-1.5,0-3.7,0.1-6.5,0.1c-5.7,0.1-14,0.2-24.4,0.3c-5.2,0.1-10.9,0.1-17.1,0.2c-3.1,0-6.3,0.1-9.6,0.1c-0.8,0-1.7,0-2.5,0
								c-0.8,0-1.7,0-2.5,0.1c-0.8,0.1-1.6,0.4-2.2,1c-0.6,0.5-1,1.3-1,2.2c-2.1,14-4.4,29.6-6.9,46.3l0,0.2h-0.2
								c-6.6,0-13.5,0-20.5,0c-3.5,0-7.1,0-10.7,0l-1.4,0c-0.5,0-0.8,0-1.2,0.2c-0.7,0.4-1.1,1.3-0.8,2c0.1,0.4,0.4,0.7,0.8,0.9
								c0.4,0.2,0.7,0.2,1.2,0.2c0.9,0,1.8,0,2.8,0c39.1,0,75,0,102.2,0.1l-0.2,0.2c2.6-17.3,4.7-31.4,6.1-41.2
								c0.4-2.4,0.7-4.6,1-6.5c0.1-0.9,0.4-1.8,0.3-2.6c-0.1-0.8-0.4-1.5-0.7-2c-0.8-1.1-1.7-1.5-2.4-1.6
								C350.4,257.7,350.1,257.7,350.1,257.7z"/>
						</g>
					</g>
				</g>
			</g>
			<g>
				<g>
					<path class="st5" d="M311.3,284.2c0,2.2,1.8,4,4,4c2.2,0,4-1.8,4-4c0-2.2-1.8-4-4-4C313.1,280.1,311.3,281.9,311.3,284.2z"/>
				</g>
			</g>
			<g>
				<g>
					<g>
						<path class="st8" d="M277.2,311.4c0.1,0,2.1-11.9,4.6-26.5c2.4-14.7,4.3-26.6,4.2-26.6c-0.1,0-2.1,11.9-4.6,26.6
							C279,299.4,277.1,311.4,277.2,311.4z"/>
					</g>
				</g>
			</g>
		</g>
	</g>
</g>
</svg>
